<?xml version="1.0" encoding="utf-8"?>
<!-- Generator: Adobe Illustrator 21.1.0, SVG Export Plug-In . SVG Version: 6.00 Build 0)  -->
<svg version="1.1" id="Layer_1" xmlns="http://www.w3.org/2000/svg" xmlns:xlink="http://www.w3.org/1999/xlink" x="0px" y="0px"
	 viewBox="0 0 54.33 54.33" style="enable-background:new 0 0 54.33 54.33;" xml:space="preserve">
<circle style="fill:#AFF0D0;" cx="27.17" cy="29.35" r="24.64"/>
<path style="fill:none;stroke:#2AC173;stroke-linecap:round;stroke-linejoin:round;stroke-miterlimit:10;" d="M51.88,17.14
	c1.26,3.1,1.95,6.48,1.95,10.03c0,14.73-11.94,26.67-26.67,26.67S0.5,41.89,0.5,27.17S12.44,0.5,27.17,0.5
	c3.9,0,7.61,0.84,10.95,2.34"/>
<g>
	<circle style="fill:#2AC173;stroke:#18A75D;stroke-miterlimit:10;" cx="45.97" cy="9.36" r="7.86"/>
	<g>
		<path style="fill:none;stroke:#006632;stroke-width:0.5;stroke-miterlimit:10;" d="M47.85,13.29h-3.71c-0.4,0-0.73-0.33-0.73-0.73
			V8.8c0-0.4,0.33-0.73,0.73-0.73h3.71c0.4,0,0.73,0.33,0.73,0.73v3.76C48.58,12.96,48.26,13.29,47.85,13.29z"/>
		<path style="fill:none;stroke:#006632;stroke-width:0.5;stroke-miterlimit:10;" d="M44.13,8.07V7.26c0-1.04,0.84-1.89,1.87-1.89h0
			c1.03,0,1.87,0.84,1.87,1.89v0.81"/>
		<path style="fill:#006632;" d="M46.64,10.32c0-0.36-0.29-0.65-0.64-0.65c-0.36,0-0.64,0.29-0.64,0.65c0,0.28,0.17,0.51,0.42,0.6
			v0.77h0.45v-0.77C46.47,10.83,46.64,10.6,46.64,10.32z"/>
	</g>
</g>
<g>
	<path style="fill:#2AC173;stroke:#006632;stroke-width:0.5;stroke-linecap:round;stroke-linejoin:round;stroke-miterlimit:10;" d="
		M6.04,24.99H10c0,0-1.41,1.85-3.96,1.85"/>
	<path style="fill:none;stroke:#006632;stroke-linecap:round;stroke-linejoin:round;stroke-miterlimit:10;" d="M47.02,33.7
		c0,0-0.52,0,1.04,0c1.56,0,2.17-1.66,2.17-1.66s0.35-0.45,0.65-3.12c-1.96-3.12-12.84-4.18-12.84-4.18s-6.04-3.78-15.01-3.78
		s-12.84,2.87-12.84,2.87s-1.51,0-3.63,0c-1.36,0.86-0.81,4.18-0.81,4.18s-1.01,0.15-1.01,0.86c0,0.7,0,2.82,0,2.82s1.3,1,4.2,1.22"
		/>
	
		<line style="fill:none;stroke:#006632;stroke-linecap:round;stroke-linejoin:round;stroke-miterlimit:10;" x1="18.12" y1="33.7" x2="38.07" y2="33.7"/>
	
		<circle style="fill:none;stroke:#006632;stroke-linecap:round;stroke-linejoin:round;stroke-miterlimit:10;" cx="13.56" cy="32.63" r="2.95"/>
	
		<circle style="fill:none;stroke:#006632;stroke-linecap:round;stroke-linejoin:round;stroke-miterlimit:10;" cx="42.58" cy="32.63" r="2.95"/>
	<path style="fill:none;stroke:#006632;stroke-width:0.5;stroke-linecap:round;stroke-linejoin:round;stroke-miterlimit:10;" d="
		M20.14,33.7c-2.65-2.45-4.53-7.28-4.53-7.28l-0.27-2.89c0,0,3.42-1.98,10.71-1.14s11.08,3.79,11.08,3.79s1.61,3.22-0.13,7.52"/>
	<path style="fill:none;stroke:#006632;stroke-width:0.5;stroke-linecap:round;stroke-linejoin:round;stroke-miterlimit:10;" d="
		M26.05,22.39v3.08c0,0,0.54,0.38,0.54,8.23"/>
	
		<line style="fill:none;stroke:#006632;stroke-width:0.5;stroke-linecap:round;stroke-linejoin:round;stroke-miterlimit:10;" x1="15.46" y1="24.79" x2="37.13" y2="26.18"/>
	
		<line style="fill:none;stroke:#006632;stroke-linecap:round;stroke-linejoin:round;stroke-miterlimit:10;" x1="17.14" y1="26.05" x2="18.93" y2="26.05"/>
	
		<line style="fill:none;stroke:#006632;stroke-linecap:round;stroke-linejoin:round;stroke-miterlimit:10;" x1="27.96" y1="26.86" x2="29.76" y2="26.86"/>
	<path style="fill:#2AC173;stroke:#006632;stroke-width:0.5;stroke-linecap:round;stroke-linejoin:round;stroke-miterlimit:10;" d="
		M50.56,28.8c0,0-1.64,0.2-3.73-0.57c-2.08-0.77-2.35-2.01-2.35-2.01S48.77,26.65,50.56,28.8z"/>
</g>
<line style="fill:none;stroke:#006632;stroke-linecap:round;stroke-linejoin:round;stroke-miterlimit:10;" x1="5.25" y1="36.29" x2="48.92" y2="36.29"/>
</svg>
