<?xml version="1.0" encoding="utf-8"?>
<!-- Generator: Adobe Illustrator 21.1.0, SVG Export Plug-In . SVG Version: 6.00 Build 0)  -->
<svg version="1.1" id="Layer_1" xmlns="http://www.w3.org/2000/svg" xmlns:xlink="http://www.w3.org/1999/xlink" x="0px" y="0px"
	 viewBox="0 0 558.9 393" style="enable-background:new 0 0 558.9 393;" xml:space="preserve">
<path style="fill:#AFF0D0;" d="M153.45,390.35h378.66c17.17-35.69,26.79-75.69,26.79-117.95C558.9,121.96,436.94,0,286.49,0
	C136.05,0,14.09,121.96,14.09,272.4c0,42.25,9.62,82.26,26.79,117.95h61.32H153.45z"/>
<line style="fill:none;stroke:#006632;stroke-linecap:round;stroke-linejoin:round;stroke-miterlimit:10;" x1="3.83" y1="390.88" x2="556.63" y2="390.88"/>
<g>
	<path style="fill:#AFF0D0;stroke:#006632;stroke-linecap:round;stroke-linejoin:round;stroke-miterlimit:10;" d="M298.34,193.7
		c-0.31-1.31-0.62-3.23-0.62-5.72c0-4.97,0.99-10.44,0.99-10.44s1.49-2.49,2.49,0.75c1,3.23,0.5,8.45,2.49,7.46
		c1.99-0.99,11.94-9.45,11.94-9.45s4.16-1.4,3.48,4.23c-0.83,6.86-8.44,14.94-11.93,17.4"/>
	<path style="fill:none;stroke:#006632;stroke-linecap:round;stroke-linejoin:round;stroke-miterlimit:10;" d="M193.85,193.04
		c0.26-1.26,0.48-2.96,0.48-5.06c0-4.97-0.99-10.44-0.99-10.44s-1.49-2.49-2.49,0.75c-0.99,3.23-0.5,8.45-2.49,7.46
		c-1.99-0.99-11.94-9.45-11.94-9.45s-4.16-1.4-3.48,4.23c0.81,6.67,8.04,14.5,11.64,17.19"/>
	<path style="fill:none;stroke:#006632;stroke-linecap:round;stroke-linejoin:round;stroke-miterlimit:10;" d="M222.64,263.21
		c0,0-16.75-9.75-28.92-35.24c-6.55-13.73-11.02-29.36-11.02-29.36l11.44-5.51c0,0,3.37,11.07,12.78,25.63
		c6.11,9.46,14,15.62,14,15.62L222.64,263.21z"/>
	<path style="fill:#AFF0D0;stroke:#006632;stroke-linecap:round;stroke-linejoin:round;stroke-miterlimit:10;" d="M268.66,263.21
		c0,0,16.91-12.54,29.58-37.36c7.35-14.4,10.35-27.25,10.35-27.25l-11.44-5.51c0,0-1.97,9.89-11.58,24.31
		c-7.39,11.09-15.19,16.94-15.19,16.94L268.66,263.21z"/>
	<path style="fill:#006632;" d="M254.91,375.93v14.79h7.7v-3.37c0,0,1.34,3.37,4.44,3.37c4.4,0,13.58,0,13.58,0s0.53-5.55-2.58-6.47
		c-3.11-0.92-10.98-1.38-13.05-7.39c-2.07-6.01-2.07-6.01-2.07-6.01L254.91,375.93z"/>
	<path style="fill:#006632;" d="M237.85,375.93v14.79h-7.7v-3.37c0,0-1.34,3.37-4.44,3.37c-4.4,0-13.58,0-13.58,0
		s-0.53-5.55,2.58-6.47c3.1-0.92,10.98-1.38,13.04-7.39c2.07-6.01,2.07-6.01,2.07-6.01L237.85,375.93z"/>
	<polygon style="fill:#2AC173;stroke:#006632;stroke-linecap:round;stroke-linejoin:round;stroke-miterlimit:10;" points="
		247.02,304.1 248.05,294.26 224.95,287.39 225.83,378.79 238.73,379.95 246.37,317.67 254.93,379.65 267.15,379.65 268.28,301.22 	
		"/>
	<path style="fill:#AFF0D0;stroke:#2AC173;stroke-linecap:round;stroke-linejoin:round;stroke-miterlimit:10;" d="M270.64,233.79
		c-6.23-1.71-25.15-1.11-25.15-1.11s-16.17-0.81-21.75,0.54c-2.11,0.51-3.34,3.78-2.91,7.43c0.46,3.92,2.03,16.96,2.15,20.83
		c0.37,11.52,0.42,41.54,0.43,50.19c0,1.28,1,2.37,2.28,2.37h41.4c1.26,0,2.3-1.02,2.31-2.28l0.61-49.49l3.01-22.48
		C273.01,239.8,273.79,234.79,270.64,233.79z"/>
	<path style="fill:#AFF0D0;stroke:#006632;stroke-linecap:round;stroke-linejoin:round;stroke-miterlimit:10;" d="M270.45,233.79
		c-6.29-1.47-25.64,1-25.64,1s-14.53-2.95-20.12-1.6c-2.11,0.51-4.39,1.26-3.96,4.91c0.46,3.92,2.11,19.51,2.23,23.38
		c0.37,11.52,0.42,41.54,0.43,50.19c0,1.28,1,2.37,2.28,2.37h41.4c1.26,0,2.3-1.02,2.31-2.28l0.61-49.49l3.08-23.05
		C273.08,239.23,274.2,234.67,270.45,233.79z"/>
	<path style="fill:#AFF0D0;stroke:#2AC173;stroke-linecap:round;stroke-linejoin:round;stroke-miterlimit:10;" d="M256.28,225.73
		v9.88c0,0-4.71,4.28-11.99,4c-5.14-0.2-6.82-4.79-6.82-4.79l0.14-5.58"/>
	<path style="fill:none;stroke:#006632;stroke-linecap:round;stroke-linejoin:round;stroke-miterlimit:10;" d="M264.03,195.79
		c0,0,0-17.13-18.27-16.84c-19.12,0.3-17.69,17.7-17.69,17.7l0.57,12.27c0,0,1.68,21.14,17.85,21.55
		c2.43,0.06,14.27-2.15,16.17-21.36C263.78,201.68,264.03,195.79,264.03,195.79z"/>
	<ellipse style="fill:#006632;" cx="237.83" cy="201.64" rx="1.74" ry="1.78"/>
	<ellipse style="fill:#006632;" cx="253.73" cy="201.79" rx="1.74" ry="1.78"/>
	<path style="fill:none;stroke:#006632;stroke-linecap:round;stroke-linejoin:round;stroke-miterlimit:10;" d="M240.87,217.77
		c0,0,1.49,0.2,4.22,0.34c2.01,0.1,5.06-1.29,5.56-3.69"/>
	<path style="fill:#AFF0D0;stroke:#006632;stroke-linecap:round;stroke-linejoin:round;stroke-miterlimit:10;" d="M263.37,200.74
		c0,0,1.62-3.24,4.09-2.19c2.52,1.07,1.8,6.47-0.29,11.61c-2.09,5.14-5.04,4.76-5.04,4.76c0.48-2.19,0.67-3.33,0.86-7.51
		C263.07,205.69,263.37,200.74,263.37,200.74z"/>
	<path style="fill:none;stroke:#006632;stroke-linecap:round;stroke-linejoin:round;stroke-miterlimit:10;" d="M228.55,199.69
		c0-1.18-1.52-3.52-4.38-1.71c-2.32,1.46-1.81,6.47,0.28,11.61c2.09,5.14,4.66,4.56,4.66,4.56S228.55,205.88,228.55,199.69z"/>
	<path style="fill:#2AC173;stroke:#006632;stroke-linecap:round;stroke-linejoin:round;stroke-miterlimit:10;" d="M256.14,187.99
		c-7.42,6.95-20.93,5.23-20.93,5.23v-4.19l-2.38,0.09c0,0-4.19-0.09-4.19,6.66c0,7.42,0,9.89,0,9.89s-2.85-6.48-3.28-16.74
		c-0.57-13.56,10.3-17.59,15.13-18.12c3.38-0.37,6.94-0.16,9.56,0c1.01,0.06-0.14-2.57,0-2.57c4.14,0,7.92,4.18,8.7,4.42
		c6.68,2.08,10.85,7.07,8.28,17.84c-2.24,9.37-4.04,14.98-4.04,14.98v-12.56C262.99,192.94,262.97,181.59,256.14,187.99z"/>
	<path style="fill:#2AC173;stroke:#006632;stroke-linecap:round;stroke-linejoin:round;stroke-miterlimit:10;" d="M247.07,284.31
		c2.34-4.38,3.29-5.63,4.68-9.43L248,252.1l3.19-7.64l-3.76-5.97l-4.88,5.86l3.29,7.75l-4.09,22.78
		C242.98,278.76,247.07,284.31,247.07,284.31z"/>
	<path style="fill:#AFF0D0;stroke:#006632;stroke-linecap:round;stroke-linejoin:round;stroke-miterlimit:10;" d="M236.11,228.76
		c0.34-0.58,1.07-0.68,1.53-0.2l8.58,9.49c0.52,0.55,0.68,1.41,0.4,2.15l-3.68,9.62c-0.21,0.54-0.86,0.62-1.16,0.14l-7.93-14.47
		c-0.42-0.66-0.43-1.54-0.03-2.22L236.11,228.76z"/>
	<path style="fill:#AFF0D0;stroke:#006632;stroke-linecap:round;stroke-linejoin:round;stroke-miterlimit:10;" d="M257.61,228.76
		c-0.33-0.59-1.04-0.68-1.48-0.2l-8.68,9.6c-0.51,0.55-0.66,1.41-0.39,2.15l3.58,9.62c0.2,0.54,0.84,0.62,1.13,0.14l8.26-14.82
		c0.4-0.66,0.42-1.54,0.03-2.22L257.61,228.76z"/>
	<g>
		
			<circle style="fill:#2AC173;stroke:#006632;stroke-linecap:round;stroke-linejoin:round;stroke-miterlimit:10;" cx="343.82" cy="292.99" r="36.39"/>
		<g>
			<path style="fill:none;stroke:#006632;stroke-linecap:round;stroke-linejoin:round;stroke-miterlimit:10;" d="M363.83,292.5v61.1
				c0,4.72-3.84,8.55-8.55,8.55h-11.47"/>
			<path style="fill:none;stroke:#006632;stroke-linecap:round;stroke-linejoin:round;stroke-miterlimit:10;" d="M340.3,352.91
				h-4.64c-4.71,0-8.55-3.84-8.55-8.55v-53.94"/>
			<path style="fill:none;stroke:#006632;stroke-linecap:round;stroke-linejoin:round;stroke-miterlimit:10;" d="M363.75,342.02
				h-5.1c-4.72,0-8.55-3.84-8.55-8.55v-41.83"/>
			
				<circle style="fill:#2AC173;stroke:#006632;stroke-linecap:round;stroke-linejoin:round;stroke-miterlimit:10;" cx="309.76" cy="309.55" r="23.85"/>
			
				<circle style="fill:#2AC173;stroke:#006632;stroke-linecap:round;stroke-linejoin:round;stroke-miterlimit:10;" cx="374.77" cy="320.43" r="17.85"/>
			<path style="fill:none;stroke:#006632;stroke-linecap:round;stroke-linejoin:round;stroke-miterlimit:10;" d="M376.74,314.89
				v24.42c0,4.71-3.84,8.55-8.55,8.55h-3.07"/>
			
				<line style="fill:none;stroke:#006632;stroke-linecap:round;stroke-linejoin:round;stroke-miterlimit:10;" x1="376.74" y1="330.7" x2="385.21" y2="318"/>
			
				<line style="fill:none;stroke:#006632;stroke-linecap:round;stroke-linejoin:round;stroke-miterlimit:10;" x1="369.12" y1="326.21" x2="376.74" y2="332.56"/>
			
				<line style="fill:none;stroke:#006632;stroke-linecap:round;stroke-linejoin:round;stroke-miterlimit:10;" x1="342.3" y1="276.74" x2="342.3" y2="390.12"/>
			
				<line style="fill:none;stroke:#006632;stroke-linecap:round;stroke-linejoin:round;stroke-miterlimit:10;" x1="353.82" y1="282.9" x2="342.3" y2="290.42"/>
			
				<line style="fill:none;stroke:#006632;stroke-linecap:round;stroke-linejoin:round;stroke-miterlimit:10;" x1="330.48" y1="296.01" x2="342.3" y2="315.66"/>
			<path style="fill:none;stroke:#006632;stroke-linecap:round;stroke-linejoin:round;stroke-miterlimit:10;" d="M326.11,341.88
				h-5.87c-4.71,0-8.55-3.84-8.55-8.55v-37.31"/>
			
				<line style="fill:none;stroke:#006632;stroke-linecap:round;stroke-linejoin:round;stroke-miterlimit:10;" x1="298.57" y1="301.1" x2="311.69" y2="319.48"/>
			
				<line style="fill:none;stroke:#006632;stroke-linecap:round;stroke-linejoin:round;stroke-miterlimit:10;" x1="317.92" y1="304.84" x2="311.69" y2="308.7"/>
			<g>
				<path style="fill:#AFF0D0;stroke:#2AC173;stroke-linecap:round;stroke-linejoin:round;stroke-miterlimit:10;" d="M333.38,272.51
					c-8.16,0-14.8-6.63-14.8-14.79c0-8.17,6.64-14.81,14.8-14.81c8.16,0,14.8,6.64,14.8,14.81
					C348.18,265.87,341.54,272.51,333.38,272.51z"/>
			</g>
			<g>
				<path style="fill:#AFF0D0;stroke:#2AC173;stroke-linecap:round;stroke-linejoin:round;stroke-miterlimit:10;" d="M367.03,284.57
					c-6.68,0-12.12-5.43-12.12-12.11c0-6.69,5.43-12.12,12.12-12.12c6.68,0,12.12,5.44,12.12,12.12
					C379.15,279.14,373.71,284.57,367.03,284.57z"/>
			</g>
			<g>
				<path style="fill:#AFF0D0;stroke:#2AC173;stroke-linecap:round;stroke-linejoin:round;stroke-miterlimit:10;" d="M386.77,314.17
					c-7.36,0-13.35-5.98-13.35-13.34c0-7.36,5.99-13.35,13.35-13.35c7.36,0,13.35,5.99,13.35,13.35
					C400.12,308.18,394.13,314.17,386.77,314.17z"/>
			</g>
			<g>
				<path style="fill:#AFF0D0;stroke:#2AC173;stroke-linecap:round;stroke-linejoin:round;stroke-miterlimit:10;" d="M354.89,332.19
					c-6.87,0-12.45-5.58-12.45-12.45c0-6.87,5.58-12.46,12.45-12.46c6.86,0,12.46,5.59,12.46,12.46
					C367.35,326.61,361.76,332.19,354.89,332.19z"/>
			</g>
			<g>
				<path style="fill:#AFF0D0;stroke:#2AC173;stroke-linecap:round;stroke-linejoin:round;stroke-miterlimit:10;" d="M330.37,363.81
					c-6.99,0-12.68-5.68-12.68-12.67c0-6.99,5.69-12.68,12.68-12.68c6.99,0,12.68,5.69,12.68,12.68
					C343.05,358.12,337.36,363.81,330.37,363.81z"/>
			</g>
			<g>
				<path style="fill:#AFF0D0;stroke:#2AC173;stroke-linecap:round;stroke-linejoin:round;stroke-miterlimit:10;" d="M305.69,341.07
					c-7.24,0-13.12-5.88-13.12-13.12c0-7.24,5.88-13.13,13.12-13.13c7.23,0,13.13,5.89,13.13,13.13
					C318.81,335.19,312.92,341.07,305.69,341.07z"/>
			</g>
			<g>
				<path style="fill:#AFF0D0;stroke:#2AC173;stroke-linecap:round;stroke-linejoin:round;stroke-miterlimit:10;" d="M298.11,300.87
					c-7.61,0-13.79-6.19-13.79-13.79c0-7.61,6.18-13.8,13.79-13.8c7.6,0,13.8,6.19,13.8,13.8
					C311.9,294.68,305.71,300.87,298.11,300.87z"/>
			</g>
			
				<line style="fill:none;stroke:#006632;stroke-linecap:round;stroke-linejoin:round;stroke-miterlimit:10;" x1="328.18" y1="250.27" x2="338.58" y2="250.27"/>
			<polyline style="fill:none;stroke:#006632;stroke-linecap:round;stroke-linejoin:round;stroke-miterlimit:10;" points="
				328.18,254.55 333.38,254.55 338.58,254.55 			"/>
			
				<line style="fill:none;stroke:#006632;stroke-linecap:round;stroke-linejoin:round;stroke-miterlimit:10;" x1="333.38" y1="265.14" x2="333.38" y2="254.55"/>
			
				<line style="fill:none;stroke:#006632;stroke-linecap:round;stroke-linejoin:round;stroke-miterlimit:10;" x1="363.11" y1="266.84" x2="370.96" y2="266.84"/>
			<polyline style="fill:none;stroke:#006632;stroke-linecap:round;stroke-linejoin:round;stroke-miterlimit:10;" points="
				363.11,270.07 367.04,270.07 370.96,270.07 			"/>
			
				<line style="fill:none;stroke:#006632;stroke-linecap:round;stroke-linejoin:round;stroke-miterlimit:10;" x1="367.04" y1="278.07" x2="367.04" y2="270.07"/>
			
				<line style="fill:none;stroke:#006632;stroke-linecap:round;stroke-linejoin:round;stroke-miterlimit:10;" x1="350.97" y1="315.47" x2="358.82" y2="315.47"/>
			<polyline style="fill:none;stroke:#006632;stroke-linecap:round;stroke-linejoin:round;stroke-miterlimit:10;" points="
				350.97,318.7 354.89,318.7 358.82,318.7 			"/>
			
				<line style="fill:none;stroke:#006632;stroke-linecap:round;stroke-linejoin:round;stroke-miterlimit:10;" x1="354.89" y1="326.69" x2="354.89" y2="318.7"/>
			
				<line style="fill:none;stroke:#006632;stroke-linecap:round;stroke-linejoin:round;stroke-miterlimit:10;" x1="381.57" y1="293.67" x2="391.97" y2="293.67"/>
			<polyline style="fill:none;stroke:#006632;stroke-linecap:round;stroke-linejoin:round;stroke-miterlimit:10;" points="
				381.57,297.95 386.77,297.95 391.97,297.95 			"/>
			
				<line style="fill:none;stroke:#006632;stroke-linecap:round;stroke-linejoin:round;stroke-miterlimit:10;" x1="386.77" y1="308.54" x2="386.77" y2="297.95"/>
			
				<line style="fill:none;stroke:#006632;stroke-linecap:round;stroke-linejoin:round;stroke-miterlimit:10;" x1="292.91" y1="279.63" x2="303.31" y2="279.63"/>
			<polyline style="fill:none;stroke:#006632;stroke-linecap:round;stroke-linejoin:round;stroke-miterlimit:10;" points="
				292.91,283.92 298.11,283.92 303.31,283.92 			"/>
			
				<line style="fill:none;stroke:#006632;stroke-linecap:round;stroke-linejoin:round;stroke-miterlimit:10;" x1="298.11" y1="294.51" x2="298.11" y2="283.92"/>
			
				<line style="fill:none;stroke:#006632;stroke-linecap:round;stroke-linejoin:round;stroke-miterlimit:10;" x1="300.49" y1="320.51" x2="310.89" y2="320.51"/>
			<polyline style="fill:none;stroke:#006632;stroke-linecap:round;stroke-linejoin:round;stroke-miterlimit:10;" points="
				300.49,324.79 305.69,324.79 310.89,324.79 			"/>
			
				<line style="fill:none;stroke:#006632;stroke-linecap:round;stroke-linejoin:round;stroke-miterlimit:10;" x1="305.69" y1="335.39" x2="305.69" y2="324.79"/>
			
				<line style="fill:none;stroke:#006632;stroke-linecap:round;stroke-linejoin:round;stroke-miterlimit:10;" x1="325.28" y1="344.12" x2="335.68" y2="344.12"/>
			<polyline style="fill:none;stroke:#006632;stroke-linecap:round;stroke-linejoin:round;stroke-miterlimit:10;" points="
				325.28,348.4 330.48,348.4 335.68,348.4 			"/>
			
				<line style="fill:none;stroke:#006632;stroke-linecap:round;stroke-linejoin:round;stroke-miterlimit:10;" x1="330.48" y1="359" x2="330.48" y2="348.4"/>
		</g>
	</g>
</g>
</svg>
