<?xml version="1.0" encoding="utf-8"?>
<!-- Generator: Adobe Illustrator 21.1.0, SVG Export Plug-In . SVG Version: 6.00 Build 0)  -->
<svg version="1.1" id="Layer_1" xmlns="http://www.w3.org/2000/svg"  x="0px" y="0px"
	 viewBox="0 0 45.06 45.21" style="enable-background:new 0 0 45.06 45.21;" xml:space="preserve">
<g>
	<g>
		<path style="fill:#2AC173;stroke:#006632;stroke-linecap:round;stroke-linejoin:round;stroke-miterlimit:10;" d="M27.45,2.7
			l-8.93,38.08l16.34,3.93l9.69-37.48C44.56,7.23,44.56,7.23,27.45,2.7z"/>
		
			<rect x="34.54" y="9.21" transform="matrix(0.9708 0.24 -0.24 0.9708 3.8283 -9.0243)" style="fill:#AFF0D0;" width="8.85" height="3.99"/>
		<polygon style="fill:#006632;" points="35.27,43.35 18.93,39.42 19.41,37.59 35.7,41.69 		"/>
		<circle style="fill:#2AC173;" cx="38.97" cy="11.21" r="1.21"/>
		
			<line style="fill:none;stroke:#006632;stroke-linecap:round;stroke-linejoin:round;stroke-miterlimit:10;stroke-dasharray:2,3;" x1="40.52" y1="14.91" x2="38.43" y2="22.92"/>
		
			<ellipse transform="matrix(0.2575 -0.9663 0.9663 0.2575 0.2306 47.5351)" style="fill:#AFF0D0;stroke:#2AC173;stroke-linecap:round;stroke-linejoin:round;stroke-miterlimit:10;" cx="31.04" cy="23.62" rx="6.08" ry="6.08"/>
		
			<line style="fill:none;stroke:#006632;stroke-linecap:round;stroke-linejoin:round;stroke-miterlimit:10;" x1="21.37" y1="36.28" x2="22.95" y2="29.21"/>
		
			<line style="fill:none;stroke:#006632;stroke-linecap:round;stroke-linejoin:round;stroke-miterlimit:10;" x1="29.72" y1="20.46" x2="33.77" y2="21.54"/>
		
			<line style="fill:none;stroke:#006632;stroke-linecap:round;stroke-linejoin:round;stroke-miterlimit:10;" x1="31.43" y1="22.19" x2="30.35" y2="26.24"/>
		
			<line style="fill:none;stroke:#006632;stroke-linecap:round;stroke-linejoin:round;stroke-miterlimit:10;" x1="29.4" y1="21.65" x2="33.45" y2="22.73"/>
	</g>
	<g>
		<path style="fill:#2AC173;stroke:#006632;stroke-linecap:round;stroke-linejoin:round;stroke-miterlimit:10;" d="M26,2.07
			l-8.93,38.08l16.34,3.93L43.1,6.6C43.1,6.6,43.1,6.6,26,2.07z"/>
		
			<rect x="33.09" y="8.57" transform="matrix(0.9708 0.24 -0.24 0.9708 3.6325 -8.6934)" style="fill:#AFF0D0;" width="8.85" height="3.99"/>
		<polygon style="fill:#006632;" points="33.81,42.71 17.47,38.79 17.95,36.95 34.24,41.05 		"/>
		<circle style="fill:#2AC173;" cx="37.51" cy="10.57" r="1.21"/>
		
			<line style="fill:none;stroke:#006632;stroke-linecap:round;stroke-linejoin:round;stroke-miterlimit:10;stroke-dasharray:2,3;" x1="39.06" y1="14.27" x2="36.97" y2="22.28"/>
		
			<ellipse transform="matrix(0.2575 -0.9663 0.9663 0.2575 -0.2339 45.6533)" style="fill:#AFF0D0;stroke:#2AC173;stroke-linecap:round;stroke-linejoin:round;stroke-miterlimit:10;" cx="29.59" cy="22.98" rx="6.08" ry="6.08"/>
		
			<line style="fill:none;stroke:#006632;stroke-linecap:round;stroke-linejoin:round;stroke-miterlimit:10;" x1="19.92" y1="35.65" x2="21.49" y2="28.57"/>
		
			<line style="fill:none;stroke:#006632;stroke-linecap:round;stroke-linejoin:round;stroke-miterlimit:10;" x1="28.26" y1="19.82" x2="32.31" y2="20.9"/>
		
			<line style="fill:none;stroke:#006632;stroke-linecap:round;stroke-linejoin:round;stroke-miterlimit:10;" x1="29.97" y1="21.55" x2="28.89" y2="25.6"/>
		
			<line style="fill:none;stroke:#006632;stroke-linecap:round;stroke-linejoin:round;stroke-miterlimit:10;" x1="27.94" y1="21.01" x2="31.99" y2="22.09"/>
	</g>
	<g>
		<path style="fill:#2AC173;stroke:#006632;stroke-linecap:round;stroke-linejoin:round;stroke-miterlimit:10;" d="M24.57,1.41
			l-8.93,38.08l16.34,3.93l9.69-37.48C41.67,5.94,41.67,5.94,24.57,1.41z"/>
		
			<rect x="31.66" y="7.92" transform="matrix(0.9708 0.24 -0.24 0.9708 3.4344 -8.3695)" style="fill:#AFF0D0;" width="8.85" height="3.99"/>
		<polygon style="fill:#006632;" points="32.38,42.06 16.04,38.13 16.52,36.3 32.81,40.4 		"/>
		<circle style="fill:#2AC173;" cx="36.08" cy="9.92" r="1.21"/>
		
			<line style="fill:none;stroke:#006632;stroke-linecap:round;stroke-linejoin:round;stroke-miterlimit:10;stroke-dasharray:2,3;" x1="37.64" y1="13.62" x2="35.55" y2="21.63"/>
		
			<ellipse transform="matrix(0.2575 -0.9663 0.9663 0.2575 -0.6655 43.7888)" style="fill:#AFF0D0;stroke:#2AC173;stroke-linecap:round;stroke-linejoin:round;stroke-miterlimit:10;" cx="28.16" cy="22.33" rx="6.08" ry="6.08"/>
		
			<line style="fill:none;stroke:#006632;stroke-linecap:round;stroke-linejoin:round;stroke-miterlimit:10;" x1="18.49" y1="34.99" x2="20.06" y2="27.92"/>
		
			<line style="fill:none;stroke:#006632;stroke-linecap:round;stroke-linejoin:round;stroke-miterlimit:10;" x1="26.83" y1="19.17" x2="30.88" y2="20.25"/>
		
			<line style="fill:none;stroke:#006632;stroke-linecap:round;stroke-linejoin:round;stroke-miterlimit:10;" x1="28.54" y1="20.9" x2="27.46" y2="24.95"/>
		
			<line style="fill:none;stroke:#006632;stroke-linecap:round;stroke-linejoin:round;stroke-miterlimit:10;" x1="26.52" y1="20.36" x2="30.56" y2="21.44"/>
	</g>
	<circle style="fill:#FFC600;" cx="36.42" cy="13.52" r="1.21"/>
	<circle style="fill:#FFC600;" cx="35.76" cy="11.88" r="1.21"/>
	<circle style="fill:#FFC600;" cx="35.22" cy="10.16" r="1.21"/>
	
		<line style="fill:none;stroke:#3F8769;stroke-linecap:round;stroke-linejoin:round;stroke-miterlimit:10;" x1="25.96" y1="19.41" x2="30.01" y2="20.49"/>
	<path style="fill:#2AC173;stroke:#006632;stroke-linecap:round;stroke-linejoin:round;stroke-miterlimit:10;" d="M22.99,0.5
		l-8.93,38.08l16.34,3.93L40.1,5.03C40.1,5.03,40.1,5.03,22.99,0.5z"/>
	
		<rect x="30.08" y="7.01" transform="matrix(0.9708 0.24 -0.24 0.9708 3.1689 -8.0184)" style="fill:#AFF0D0;" width="8.85" height="3.99"/>
	<polygon style="fill:#006632;" points="30.81,41.15 14.47,37.22 14.95,35.39 31.24,39.49 	"/>
	<circle style="fill:#2AC173;" cx="34.51" cy="9" r="1.21"/>
	
		<line style="fill:none;stroke:#006632;stroke-linecap:round;stroke-linejoin:round;stroke-miterlimit:10;stroke-dasharray:2,3;" x1="36.06" y1="12.7" x2="33.97" y2="20.72"/>
	
		<ellipse transform="matrix(0.2575 -0.9663 0.9663 0.2575 -0.9505 41.5884)" style="fill:#AFF0D0;stroke:#2AC173;stroke-linecap:round;stroke-linejoin:round;stroke-miterlimit:10;" cx="26.58" cy="21.41" rx="6.08" ry="6.08"/>
	
		<line style="fill:none;stroke:#006632;stroke-linecap:round;stroke-linejoin:round;stroke-miterlimit:10;" x1="16.91" y1="34.08" x2="18.49" y2="27.01"/>
	
		<line style="fill:none;stroke:#006632;stroke-linecap:round;stroke-linejoin:round;stroke-miterlimit:10;" x1="25.26" y1="18.25" x2="29.31" y2="19.33"/>
	
		<line style="fill:none;stroke:#006632;stroke-linecap:round;stroke-linejoin:round;stroke-miterlimit:10;" x1="26.97" y1="19.98" x2="25.89" y2="24.03"/>
	
		<line style="fill:none;stroke:#006632;stroke-linecap:round;stroke-linejoin:round;stroke-miterlimit:10;" x1="24.94" y1="19.45" x2="28.99" y2="20.52"/>
	<path style="fill:#FFFFFF;" d="M0,30.84l4.58-5.19l5.9,10.45l-3.35,3.84C7.13,39.93,1.84,36.14,0,30.84z"/>
	<path style="fill:#FFFFFF;stroke:#006632;stroke-linecap:round;stroke-linejoin:round;stroke-miterlimit:10;" d="M13.12,33.03
		c0.94,0.07,2.42-1.09,2.59-1.33l2.81-12.14"/>
	<path style="fill:#FFFFFF;stroke:#006632;stroke-linecap:round;stroke-linejoin:round;stroke-miterlimit:10;" d="M15.9,18.15
		c0,0,0.21,0.73,5.39,1.52c5.19,0.79,5.44-3.07,5.22-3.51c-0.45-0.9-7.94-3.35-10.96-2.61s-7.99,8.49-7.99,8.49"/>
	<path style="fill:#FFFFFF;stroke:#006632;stroke-linecap:round;stroke-linejoin:round;stroke-miterlimit:10;" d="M12.78,23.7
		c0.18,0,5.06,0.34,5.19-4.67"/>
	<path style="fill:#AFF0D0;stroke:#2AC173;stroke-linecap:round;stroke-linejoin:round;stroke-miterlimit:10;" d="M4.58,25.65
		c0,0-0.23,5.73,5.9,10.45l2.64-3.07c0,0-5.97-5.13-5.55-11C6.27,23.71,4.58,25.65,4.58,25.65z"/>
	
		<line style="fill:none;stroke:#2AC173;stroke-linecap:round;stroke-linejoin:round;stroke-miterlimit:10;" x1="1.08" y1="29.91" x2="4.58" y2="25.65"/>
	
		<line style="fill:none;stroke:#2AC173;stroke-linecap:round;stroke-linejoin:round;stroke-miterlimit:10;" x1="10.48" y1="36.09" x2="8.21" y2="39"/>
	<circle style="fill:#2AC173;stroke:#18A75D;stroke-miterlimit:10;" cx="10.23" cy="32.96" r="0.88"/>
</g>
</svg>
