<?xml version="1.0" encoding="utf-8"?>
<!-- Generator: Adobe Illustrator 21.1.0, SVG Export Plug-In . SVG Version: 6.00 Build 0)  -->
<svg version="1.1" id="Layer_1" xmlns="http://www.w3.org/2000/svg"  x="0px" y="0px"
	 viewBox="0 0 54.33 54.33" style="enable-background:new 0 0 54.33 54.33;" xml:space="preserve">
<circle style="fill:#AFF0D0;" cx="27.19" cy="29.35" r="24.64"/>
<path style="fill:none;stroke:#2AC173;stroke-linecap:round;stroke-linejoin:round;stroke-miterlimit:10;" d="M51.88,17.14
	c1.26,3.1,1.95,6.48,1.95,10.03c0,14.73-11.94,26.67-26.67,26.67S0.5,41.89,0.5,27.17S12.44,0.5,27.17,0.5
	c3.9,0,7.61,0.84,10.95,2.34"/>
<path style="fill:none;stroke:#2AC173;stroke-linecap:round;stroke-linejoin:round;stroke-miterlimit:10;" d="M49.37,12.39
	c-2.05-3.07-4.71-5.69-7.82-7.68"/>
<path style="fill:none;stroke:#006632;stroke-linecap:round;stroke-linejoin:round;stroke-miterlimit:10;" d="M21.3,3.87
	l-8.93,38.08l16.34,3.93L38.4,8.4C38.4,8.4,38.4,8.4,21.3,3.87z"/>
<path style="fill:none;stroke:#006632;stroke-linecap:round;stroke-linejoin:round;stroke-miterlimit:10;" d="M14.06,42.36
	l-0.47,1.99l16.34,3.93l9.69-37.48c0,0,0,0-1.46-0.39"/>
<path style="fill:none;stroke:#006632;stroke-linecap:round;stroke-linejoin:round;stroke-miterlimit:10;" d="M15.04,44.9
	l-0.34,1.44l16.34,3.93l9.69-37.48c0,0,0,0-1.49-0.39"/>
<rect x="28.39" y="10.38" transform="matrix(0.9708 0.24 -0.24 0.9708 3.9283 -7.5124)" style="fill:#2AC173;stroke:#006632;stroke-width:0.5;stroke-linecap:round;stroke-linejoin:round;stroke-miterlimit:10;" width="8.85" height="3.99"/>
<polygon style="fill:#2AC173;stroke:#006632;stroke-width:0.5;stroke-linecap:round;stroke-linejoin:round;stroke-miterlimit:10;" points="
	29.11,44.52 12.77,40.59 13.25,38.76 29.54,42.86 "/>
<line style="fill:none;stroke:#006632;stroke-width:0.5;stroke-linecap:round;stroke-linejoin:round;stroke-miterlimit:10;stroke-dasharray:2,3;" x1="34.36" y1="16.08" x2="32.27" y2="24.09"/>
<ellipse transform="matrix(0.2575 -0.9663 0.9663 0.2575 -5.4693 42.4511)" style="fill:none;stroke:#006632;stroke-width:0.5;stroke-linecap:round;stroke-linejoin:round;stroke-miterlimit:10;" cx="24.89" cy="24.78" rx="6.08" ry="6.08"/>
<line style="fill:none;stroke:#006632;stroke-width:0.5;stroke-linecap:round;stroke-linejoin:round;stroke-miterlimit:10;" x1="15.22" y1="37.45" x2="16.79" y2="30.38"/>
<line style="fill:none;stroke:#006632;stroke-linecap:round;stroke-linejoin:round;stroke-miterlimit:10;" x1="23.56" y1="21.63" x2="27.61" y2="22.7"/>
<line style="fill:none;stroke:#006632;stroke-linecap:round;stroke-linejoin:round;stroke-miterlimit:10;" x1="25.27" y1="23.36" x2="24.19" y2="27.4"/>
<line style="fill:none;stroke:#006632;stroke-linecap:round;stroke-linejoin:round;stroke-miterlimit:10;" x1="23.24" y1="22.82" x2="27.29" y2="23.89"/>
</svg>
