<?xml version="1.0" encoding="utf-8"?>
<!-- Generator: Adobe Illustrator 21.1.0, SVG Export Plug-In . SVG Version: 6.00 Build 0)  -->
<svg version="1.1" id="Layer_1" xmlns="http://www.w3.org/2000/svg" xmlns:xlink="http://www.w3.org/1999/xlink" x="0px" y="0px"
	 viewBox="0 0 45.7 44.06" style="enable-background:new 0 0 45.7 44.06;" xml:space="preserve">
<path style="fill:#2AC173;stroke:#006632;stroke-linecap:round;stroke-linejoin:round;stroke-miterlimit:10;" d="M3.42,17.38H1.65
	c-0.4,0-0.73-0.33-0.73-0.73v-1.8c0-0.4,0.33-0.73,0.73-0.73h1.77c0.4,0,0.73,0.33,0.73,0.73v1.8C4.15,17.05,3.82,17.38,3.42,17.38z
	"/>
<path style="fill:#2AC173;stroke:#006632;stroke-linecap:round;stroke-linejoin:round;stroke-miterlimit:10;" d="M1.37,14.12v-0.51
	c0-0.65,0.52-1.18,1.17-1.18h0c0.64,0,1.17,0.53,1.17,1.18v0.51"/>
<path style="fill:#006632;" d="M2.93,15.52c0-0.22-0.18-0.41-0.4-0.41c-0.22,0-0.4,0.18-0.4,0.41c0,0.17,0.11,0.32,0.26,0.38v0.48
	h0.28V15.9C2.83,15.84,2.93,15.7,2.93,15.52z"/>
<line style="fill:none;stroke:#2AC173;stroke-linecap:round;stroke-linejoin:round;stroke-miterlimit:10;" x1="0.5" y1="7.11" x2="45.2" y2="7.11"/>
<line style="fill:none;stroke:#2AC173;stroke-linecap:round;stroke-linejoin:round;stroke-miterlimit:10;" x1="0.5" y1="19.04" x2="45.2" y2="19.04"/>
<rect x="3.44" y="25.72" style="fill:#2AC173;stroke:#18A75D;stroke-linecap:round;stroke-linejoin:round;stroke-miterlimit:10;" width="38.81" height="10.34"/>
<path style="fill:#FFFFFF;stroke:#006632;stroke-width:0.5;stroke-linecap:round;stroke-linejoin:round;stroke-miterlimit:10;" d="
	M35.73,38.65c0-0.48,0.32-0.87,0.81-0.87c0.24,0,0.44,0.1,0.58,0.26c0.14,0.16,0.22,0.38,0.22,0.62c0,0,0,0.69-0.06,1.27l-0.19,1.59
	c-0.11,1.28-1.27,2.26-2.46,2.26s-2.94,0.35-4.1-1.14c-0.55-0.71-0.45-1.55-2.24-2.46c-0.47-0.24-0.69-0.79-0.47-1.27
	c0.22-0.48,0.79-0.68,1.27-0.47c1.08,0.47,1.44,1.24,1.46,1.27v-0.15v-0.99v-3.76c0-0.48,0.39-0.87,0.87-0.87
	c0.24,0,0.46,0.1,0.62,0.26c0.16,0.16,0.26,0.38,0.26,0.62v2.7c0-0.48,0.39-0.87,0.87-0.87c0.24,0,0.46,0.1,0.62,0.26
	c0.16,0.16,0.26,0.38,0.26,0.62v0.45c0-0.48,0.32-0.87,0.81-0.87c0.24,0,0.46,0.1,0.62,0.26c0.16,0.16,0.26,0.38,0.26,0.62V38.65z"
	/>
<line style="fill:#FFFFFF;stroke:#006632;stroke-width:0.5;stroke-linecap:round;stroke-linejoin:round;stroke-miterlimit:10;" x1="30.55" y1="40.38" x2="30.55" y2="39.44"/>
<circle style="fill:#2AC173;stroke:#006632;stroke-linecap:round;stroke-linejoin:round;stroke-miterlimit:10;" cx="2.32" cy="1.57" r="1.07"/>
<path style="fill:#2AC173;stroke:#006632;stroke-linecap:round;stroke-linejoin:round;stroke-miterlimit:10;" d="M3.84,5.37H0.92
	v-1.4c0-0.73,0.59-1.33,1.33-1.33h0.26c0.73,0,1.33,0.59,1.33,1.33V5.37z"/>
</svg>
