<?xml version="1.0" encoding="utf-8"?>
<!-- Generator: Adobe Illustrator 21.1.0, SVG Export Plug-In . SVG Version: 6.00 Build 0)  -->
<svg version="1.1" id="Layer_1" xmlns="http://www.w3.org/2000/svg" xmlns:xlink="http://www.w3.org/1999/xlink" x="0px" y="0px"
	 viewBox="0 0 45.7 44.4" style="enable-background:new 0 0 45.7 44.4;" xml:space="preserve">
<polyline style="fill:#2AC173;stroke:#006632;stroke-linecap:round;stroke-linejoin:round;stroke-miterlimit:10;" points="
	41.56,16.89 45.2,18.98 45.2,43.9 0.5,43.9 0.5,18.98 4.31,16.39 "/>
<path style="fill:none;stroke:#006632;stroke-linecap:round;stroke-linejoin:round;stroke-miterlimit:10;" d="M4.89,40.21
	C22.66,25.1,22.78,25.17,22.78,25.17l17.78,15.08"/>
<polygon style="fill:#AFF0D0;stroke:#2AC173;stroke-linecap:round;stroke-linejoin:round;stroke-miterlimit:10;" points="
	41.56,21.9 41.56,0.5 4.31,0.5 4.31,21.7 4.31,22.22 14.6,31.65 23.73,25.98 30.8,31.92 "/>
<polyline style="fill:none;stroke:#006632;stroke-linecap:round;stroke-linejoin:round;stroke-miterlimit:10;" points="0.64,18.98 
	14.6,31.65 22.78,25.17 30.8,31.92 45.06,18.98 "/>
<path style="fill:#AFF0D0;stroke:#2AC173;stroke-miterlimit:10;" d="M4.31,22.22"/>
<path style="fill:none;stroke:#006632;stroke-linecap:round;stroke-linejoin:round;stroke-miterlimit:10;" d="M10.62,8.11
	c1.02-0.78,2.65-0.56,3.43,0.46c0.19,0.25,0.34,0.54,0.6,0.72c0.31,0.22,0.72,0.24,1.1,0.23c2.1-0.05,4.15-0.64,6.23-0.97
	c4.26-0.69,8.61-0.33,12.91,0.06"/>
<path style="fill:none;stroke:#006632;stroke-linecap:round;stroke-linejoin:round;stroke-miterlimit:10;" d="M11.76,15.48
	c0.31-0.6,0.63-1.2,0.94-1.8c0.19,1.35,0.53,2.67,1.03,3.94c0.13,0.34,0.32,0.72,0.67,0.83c0.38,0.12,0.78-0.13,1.09-0.38
	c1.37-1.09,2.54-2.44,3.4-3.97c-0.14,0.74,0.87,1.1,1.62,1.14c4.82,0.26,9.66,0.08,14.49-0.1"/>
</svg>
