<?xml version="1.0" encoding="utf-8"?>
<!-- Generator: Adobe Illustrator 21.1.0, SVG Export Plug-In . SVG Version: 6.00 Build 0)  -->
<svg version="1.1" id="Layer_1" xmlns="http://www.w3.org/2000/svg" xmlns:xlink="http://www.w3.org/1999/xlink" x="0px" y="0px"
	 viewBox="0 0 54.33 54.33" style="enable-background:new 0 0 54.33 54.33;" xml:space="preserve">
<circle style="fill:#AFF0D0;" cx="27.17" cy="29.35" r="24.64"/>
<path style="fill:none;stroke:#2AC173;stroke-linecap:round;stroke-linejoin:round;stroke-miterlimit:10;" d="M51.88,17.14
	c1.26,3.1,1.95,6.48,1.95,10.03c0,14.73-11.94,26.67-26.67,26.67S0.5,41.89,0.5,27.17S12.44,0.5,27.17,0.5
	c3.9,0,7.61,0.84,10.95,2.34"/>
<g>
	<circle style="fill:#2AC173;stroke:#18A75D;stroke-miterlimit:10;" cx="45.97" cy="9.36" r="7.86"/>
	<g>
		<path style="fill:none;stroke:#006632;stroke-width:0.5;stroke-miterlimit:10;" d="M47.85,13.29h-3.71c-0.4,0-0.73-0.33-0.73-0.73
			V8.8c0-0.4,0.33-0.73,0.73-0.73h3.71c0.4,0,0.73,0.33,0.73,0.73v3.76C48.58,12.96,48.26,13.29,47.85,13.29z"/>
		<path style="fill:none;stroke:#006632;stroke-width:0.5;stroke-miterlimit:10;" d="M44.13,8.07V7.26c0-1.04,0.84-1.89,1.87-1.89h0
			c1.03,0,1.87,0.84,1.87,1.89v0.81"/>
		<path style="fill:#006632;" d="M46.64,10.32c0-0.36-0.29-0.65-0.64-0.65c-0.36,0-0.64,0.29-0.64,0.65c0,0.28,0.17,0.51,0.42,0.6
			v0.77h0.45v-0.77C46.47,10.83,46.64,10.6,46.64,10.32z"/>
	</g>
</g>
<line style="fill:none;stroke:#006632;stroke-linecap:round;stroke-linejoin:round;stroke-miterlimit:10;" x1="32.25" y1="39.72" x2="44.47" y2="34.5"/>
<polyline style="fill:none;stroke:#006632;stroke-linecap:round;stroke-linejoin:round;stroke-miterlimit:10;" points="8.98,12.93 
	15.27,12.93 25.07,36.53 "/>
<circle style="fill:none;stroke:#006632;stroke-miterlimit:10;" cx="27.07" cy="41.64" r="3.98"/>
<polygon style="fill:none;stroke:#006632;stroke-linecap:round;stroke-linejoin:round;stroke-miterlimit:10;" points="32.85,25.44 
	29.51,17.43 20.34,21.21 23.73,29.1 "/>
<polyline style="fill:none;stroke:#006632;stroke-linecap:round;stroke-linejoin:round;stroke-miterlimit:10;" points="31.42,38.34 
	42.47,33.87 38.69,24.59 24.24,30.37 26.8,36.39 "/>
<polyline style="fill:#2AC173;stroke:#006632;stroke-width:0.5;stroke-linecap:round;stroke-linejoin:round;stroke-miterlimit:10;" points="
	23.89,19.78 25.61,23.78 27.39,23.03 25.66,19.02 "/>
<polyline style="fill:#2AC173;stroke:#006632;stroke-width:0.5;stroke-linecap:round;stroke-linejoin:round;stroke-miterlimit:10;" points="
	30.69,27.85 32.41,31.85 34.19,31.1 32.46,27.09 "/>
<line style="fill:none;stroke:#006632;stroke-linecap:round;stroke-linejoin:round;stroke-miterlimit:10;" x1="14.4" y1="46.13" x2="41.31" y2="46.13"/>
</svg>
