<?xml version="1.0" encoding="utf-8"?>
<!-- Generator: Adobe Illustrator 19.2.1, SVG Export Plug-In . SVG Version: 6.00 Build 0)  -->
<svg version="1.1" id="Layer_3" xmlns="http://www.w3.org/2000/svg" xmlns:xlink="http://www.w3.org/1999/xlink" x="0px" y="0px"
	 viewBox="0 0 512 512" style="enable-background:new 0 0 512 512;" xml:space="preserve">
<circle style="fill:#C0EBDF;" cx="257.5" cy="247.65" r="211.85"/>
<path style="fill:#FFFFFF;" d="M424.49,265.39c-2.66,0-5.13,0.78-7.22,2.11c-1.63-8.5-9.09-14.93-18.07-14.93
	c-8.58,0-15.78,5.88-17.81,13.83c-2.47-1.92-5.56-3.08-8.93-3.08c-8.03,0-14.54,6.51-14.54,14.54s6.51,14.54,14.54,14.54h52.04
	c7.46,0,13.5-6.05,13.5-13.5S431.95,265.39,424.49,265.39z"/>
<path style="fill:#FFFFFF;" d="M157.1,177.39c-0.48,0-0.95,0.04-1.43,0.07c-6.07-11.7-19.05-18.84-32.82-16.84
	c-11.58,1.68-20.79,9.41-24.91,19.51c-3.3-1.74-7.06-2.74-11.05-2.74c-13.09,0-23.71,10.61-23.71,23.71
	c0,13.09,10.61,23.71,23.71,23.71h70.21c13.09,0,23.71-10.61,23.71-23.71C180.8,188.01,170.19,177.39,157.1,177.39z"/>
<g style="display:none;">
	
		<rect x="161.31" y="114.29" transform="matrix(4.489990e-11 1 -1 4.489990e-11 485.4834 -10.6941)" style="display:inline;fill:#FFFFFF;" width="173.55" height="246.22"/>
	<polygon style="display:inline;fill:#F4F4F4;" points="124.98,150.62 124.98,150.62 371.2,150.62 371.2,324.17 	"/>
	<rect x="147.5" y="183.61" style="display:inline;fill:#4C4C4C;" width="203" height="6.33"/>
	<rect x="147.5" y="209.61" style="display:inline;fill:#4C4C4C;" width="203" height="6.33"/>
	<rect x="147.5" y="236.96" style="display:inline;fill:#4C4C4C;" width="109" height="6.33"/>
	
		<text transform="matrix(1 0 0 1 148.5005 306.1484)" style="display:inline;fill:#159F3E; font-family:'ArialMT'; font-size:62.4044px;">0%</text>
</g>
<g>
	<path style="fill:#F9C290;" d="M444.97,233.1l-24.27,1.75c0,0-16.37,8.5-40.46-5.43c0,0-14.4-9.96-16.47-18.53
		c0,0,1.98,7.91-2.82,11.3c-2.73,1.98-6.87,1.98-6.87,1.98s-3.11,4.14-8.66,3.29c-5.55-0.85-6.96-4.05-6.96-4.05
		s-3.39,1.88-8.85-0.66c-3.2-1.79-5.08-4.61-4.99-5.08c0.09-0.47-2.82,0.47-6.59-1.6c-3.76-2.07-4.89-4.71-4.89-4.71
		s-2.45-8.94-2.26-24.28c-5.33-1.53-12.99-3.01-15.4-10.73c-1.66-5.3-0.47-11.17,3.1-15.43c2.78-3.31,7.41-6.18,14.85-4.44
		c14.87,4.8,18.26,6.12,18.26,6.12v-8.09c0,0,32.94-18.64,42.73-18.64s47.06,26.68,56.66,32.8c10.54,1.13,14.59,1.27,14.59,1.27
		s4.33,0.18,8.99,0c12.59,29.41,14.31,64.76,14.31,64.76L444.97,233.1z"/>
	<polygon style="fill:#E1AF84;" points="375.26,176.93 331.68,162.62 331.73,157.13 	"/>
	<path style="fill:#E1AF84;" d="M299.73,160.55c0,0-3.35,11.64,1.48,16.47s36.37,10.78,45.59,15.58s20.16,10.61,20.16,10.61
		s4.43,15.89,22.88,23.24c11.67,5.08,18.69,6.68,34.41,3.1l16.22-1.12c2.89-0.2,5.8-0.22,8.7-0.06l18.7,1.38l1.1,4.97l-23.16-1.56
		c-0.68-0.04-1.37-0.03-2.05,0.02l-22.13,1.6c-0.62,0.04-1.22,0.2-1.78,0.46c-3.1,1.43-15.62,5.87-36.08-3.79
		c-11-5.29-19.69-17.37-20.06-20.56c-1.88-1.59-3.35-3.47-3.35-3.47s-18.99-12.33-48.64-19.95c-4.59-1.4-15.24-3.67-16.62-12.58
		C293.52,164.84,299.73,160.55,299.73,160.55z"/>
	<path style="fill:#E1AF84;" d="M332.53,193.3c0,0,3.2,14.31-1.6,18.35s-8.94,5.46-12.89,4.42c0,0,7.45,4.71,15.54-1.69
		c8.08-6.4,2.06-22.4,2.06-22.4L332.53,193.3z"/>
	<path style="fill:#E1AF84;" d="M341.66,196.03c0,0,3.96,17.87-0.94,22.4c-3.76,3.48-7.76,5.01-11.71,3.97c0,0,6.27,5.16,14.35-1.24
		c8.08-6.4,2.06-22.4,2.06-22.4L341.66,196.03z"/>
	<path style="fill:#E1AF84;" d="M350.5,199.09c0,0,3.11,13.6,2.64,16.99c-0.47,3.39-0.48,10.39-11.21,10.37
		c0,0,9.04,3.94,13.18-3.88s-3.58-26.54-3.58-26.54C351.75,196.57,350.5,199.09,350.5,199.09z"/>
	<path style="fill:#E1AF84;" d="M360.01,204.87c0,0,2.16,11.31,0,13.94s-6.21,4.61-6.87,4.61s4.55,1.8,8.82-2.11
		c4.27-3.91,0.78-15.87,0.78-15.87L360.01,204.87z"/>
	<path style="fill:#FCE0D4;" d="M298.7,177.34c0,0,16.78,10.68,21.62-2.02c5.27-13.84-14.5-16.72-14.5-16.72
		S296.57,164.65,298.7,177.34z"/>
</g>
<g>
	
		<rect x="211.06" y="120.27" transform="matrix(-0.1748 -0.9846 0.9846 -0.1748 91.2778 484.3808)" style="fill:#97A7CD;" width="75.11" height="167.35"/>
	
		<rect x="132.2" y="214.36" transform="matrix(-0.1748 -0.9846 0.9846 -0.1748 -15.1577 423.1795)" style="fill:#607EB3;" width="75.11" height="7.15"/>
	
		<rect x="242.04" y="192.24" transform="matrix(-0.1748 -0.9846 0.9846 -0.1748 133.0793 508.417)" style="fill:#323D50;" width="75.11" height="12.4"/>
	
		<rect x="228.8" y="193.55" transform="matrix(-0.1748 -0.9846 0.9846 -0.1748 115.2081 498.1409)" style="fill:#8DBCD2;" width="75.11" height="14.49"/>
	
		<rect x="313.26" y="213.26" transform="matrix(-0.1748 -0.9846 0.9846 -0.1748 163.945 575.2744)" style="fill:#3488CA;" width="19.56" height="11.35"/>
	
		<rect x="309.79" y="151.12" transform="matrix(-0.1748 -0.9846 0.9846 -0.1748 212.1637 491.417)" style="fill:#3488CA;" width="4.44" height="11.35"/>
	
		<ellipse transform="matrix(0.9846 -0.1748 0.1748 0.9846 -32.4344 59.6066)" style="fill:#DAD724;" cx="322.15" cy="213.92" rx="2.71" ry="2.71"/>
	<path style="fill:#C6BAC4;" d="M320.41,184.59c-0.22-0.68-0.77-0.28-1.22,0.11c-0.45,0.39-2.01,0.87-2.61,0.98
		c-0.6,0.11-1.84-0.5-1.95-1.1s-0.35-1.25-0.95-1.14c-0.6,0.11-1.55-0.03-2.4-1.35c-0.85-1.32-1.75-1.16-2.49-1.41
		c-0.74-0.25-2.43,1.13-3.2,1.57s-2.3,0.1-3.39,0.06c-1.09-0.04-2.02-1.8-2.95-1.41c-0.93,0.4-0.81,2.38-1.56,2.52
		c-0.75,0.13-2.79-3.52-4.6-5.44s-5.13-5.81-7.52-6.23c-2.39-0.42-1.92-1.67-1.43-2.37c0.49-0.71-1.48-0.51-2.29,0.17
		c-0.81,0.68-1.76,1.86-2.76,2.27s-2.21,2.32-3.4,2.15c-1.19-0.17-1.39,1.72-2.44,1.05s0.95-1.64,0.81-2.38
		c-0.13-0.75-1.38,0.48-1.84,0.09s-1.73-0.62-1.61,0.05c0.12,0.67-0.92,0.47-1.01-0.05c-0.09-0.52-0.94-1.38-1.42-0.6
		s-2.43,1.51-2.98,1.07c-0.54-0.44,0.17-0.8,0.12-1.49c-0.04-0.69-1.03-1.44-1.02-2.29s-1.72-1.39-2.41-0.96
		c-0.7,0.43-1.8,0.32-2.69,0.09c-0.89-0.23-4,0.94-4.02,1.72c-0.02,0.78-3.95,2.09-4.65,2.52c-0.7,0.43-3.61,1.41-4.63,1.75
		c-1.02,0.34-1.91,1.42-3.26,1.66s-3.87,0.84-4.91,1.95s-3.12,0.71-3.96,1.17c-0.85,0.46-2.42,0.28-2.82,0.65
		c-0.4,0.38,0.07,2.15,0.65,2.82s3.03,0.54,3.26,0.97c0.23,0.42-2.32,0.87-3.49,1.24c-1.17,0.36-0.61,1.81-0.17,2.5
		s-0.93,1.71-1.78,2.17s0.32,1.8,1.22,1.64c0.9-0.16,1.78,0.46,2.53,0.32c0.75-0.13,1.16,1.34,1.32,2.24
		c0.16,0.9-0.69,1.36-1.88,1.57c-1.2,0.21-1.96-0.58-2.73-0.6c-0.78-0.02-0.36,1.45-0.91,1.86s-0.93-0.92-1.83-0.76
		s-1.97,0.2-2.43-0.65s-2.58-0.62-3.32,0.44s-1.12,0.66-1.97,0.2c-0.86-0.47-2.94,0.83-3.11,1.63c-0.17,0.8-1.76,1.39-3.09,0.86
		s-2.13-0.7-1.95,0.35s-0.87,0.31-0.98-0.29s-2.27-1.45-3.27-1.89s-3.85,0.07-4.11-0.51c-0.26-0.57-2.13-0.7-2.4,0.43
		c-0.26,1.13-1.14,0.51-1.8,0.32c-0.65-0.19-1.87,0.79-2.41,1.2s-2.25,2.1-3.3,2.29s-0.21,1.43-1.5,1.97
		c-1.29,0.54-0.84,1.38-0.58,1.96c0.26,0.57,1.19,1.49,0.07,2.15c-1.12,0.66-1.91-1.21-3.09-1.77c-1.18-0.56-1.92,0.5-1.73,1.54
		c0.19,1.05-1.01,1.26-1.42,2.42c-0.41,1.15,1.26,1.01,1.34,1.46c0.08,0.45-0.74,1.06-1.01,1.26c-0.27,0.2-0.76,1.83-0.38,2.23
		s2.15-0.07,2.19,1c0.04,1.07,0.07,2.15,0.92,1.69s1.77-0.47,2.37-0.58s1.26,1.01,2.52,2.02c1.26,1.01,1.82,1.53,0.82,2.02
		s-0.44,1,1.01,1.36c0.38,0.1,0.8,0.27,1.2,0.46c0.19-0.18,0.37-0.37,0.53-0.56c1.43-1.8,4.28-3.75,6.68-3.56
		c2.4,0.19,4.12-1.14,5.37,0.08c1.25,1.22,0.71,3.99,1.29,4.92c0.58,0.93-1.6,1.42-3.14,1.48c-1.53,0.07-4.49,1.41-3.93,2.24
		c0.56,0.83,2.03,2.73-0.16,1.99c-2.19-0.74-2.6,1.59-1.5,1.4c1.1-0.2,2.83,0.84,2.99,1.74s0.61,2.88,1.56,2.4
		c0.95-0.48,1.26,1.32,2.64,0.97c1.38-0.35,2.77-0.08,1.9,1.41c-0.87,1.49,1.57,4.77,1.82,3.9c0.16-0.55-0.25-1.6,0.02-2.36
		c-1.11-1.7,2.2-2.29,3.16-2.46c1.07-0.19,3.22,1.08,4.7,2.47c1.48,1.39,2.49,0.11,2.49,0.11l-2.25-15l8.14-3.8
		c0.04-0.23,0.1-0.44,0.18-0.62c0.82-1.79,2.53-0.73,3.11-0.45c0.49,0.24-0.1-1.73,1.11-1.85c1.22-0.11,0.26,2.01,1.15,1.85
		c0.7-0.12,2.74,2.07,2.58,4.11c1.52,0.86,4.39,3.01,4.72,3.62c0.41,0.75,3.64-1.2,4.35-1.05c0.71,0.15,5.91-0.77,6.85-0.94
		s1.91,1.45,3.02,1.53c1.11,0.08,1.02,1.88,1.37,3.06c0.35,1.18,2.16,2.09,2.48,3.13c0.32,1.04,1.96,0.2,3.07,0.28
		c1.11,0.08,2.79,0.19,3.11,1.24c0.32,1.04,1.51,0.01,1.5-0.82c-0.01-0.82,1.14-2.13,2.99-3.28c0.83-0.52,1.43-0.63,1.91-0.53
		c0.2-1.02,0.44-1.9,0.68-2.06c0.65-0.42,1.77-1.65,1.69-2.67c-0.08-1.02,2.62-1.5,4.58-0.92c1.96,0.58,3.05,0.38,2.91-1.03
		c-0.15-1.42,2.37-2.28,3.25-2.02c0.87,0.26,3.61,1.21,4.72,0.5c1.11-0.71,7.21-1.18,8.77-1.04c1.57,0.13,1.79-0.94,3.36,0.33
		c1.31,1.07,1.64-0.16,3.02,0.6c-0.07-0.38-0.24-0.85-0.33-1.36c-0.17-0.97,1.18-2.06,1.35-2.86c0.17-0.8-1.88-2.76-2.01-3.5
		c-0.13-0.75-0.45-2.55-1.27-2.79c-0.82-0.24,1.18-1.6,1.7-1.67c1.12-0.14,2.5-1.59,3.07-1.19c0.57,0.4,1.56,0.36,2.53,0.19
		c0.97-0.17,0.36-1.2-0.28-1.59c-0.64-0.39,0.84-5.28,0.92-6.86c0.07-1.58,1.15-0.35,2.28-0.41c1.13-0.06,2.4-0.5,3.16-0.28
		c0.75,0.22,2.62-0.9,2.97-1.74c0.35-0.85-0.72-0.87-0.96-2.61c-0.24-1.74,0.65-2.75,1.76-2.95c1.11-0.2,1.27-1.29,1.12-2.12
		c-0.13-0.75,0.68-1.38,0.79-2.38C320.93,185.42,320.54,184.97,320.41,184.59z M237.56,214.39c-0.3,0.62-4.43,0.3-4.9-0.45
		C232.15,213.14,238.22,213.07,237.56,214.39z M294.19,203.97c-2.8,0.5-9.23,0.2-11.25,3.34c-2.02,3.14,0.03,4.22-1.03,4.61
		c-1.14,0.42-2.52-3.78-1.38-5.42c1.15-1.65,5.54-3.04,8.46-2.84c2.92,0.2,7.68-1.98,8.42-1.9
		C298.14,201.83,296.99,203.48,294.19,203.97z"/>
	
		<text transform="matrix(0.9846 -0.1748 0.1748 0.9846 180.0293 192.0639)" style="fill:#213771; font-family:'Arial-BoldMT'; font-size:13.0296px;">10000</text>
	
		<text transform="matrix(0.1748 0.9846 -0.9846 0.1748 310.5829 160.8405)" style="fill:#20376E; font-family:'Arial-BoldMT'; font-size:4.5678px;">10000</text>
	
		<rect x="208.02" y="68.06" transform="matrix(0.2658 -0.964 0.964 0.2658 34.0187 348.1386)" style="fill:#97A7CD;" width="75.11" height="167.35"/>
	
		<rect x="130.8" y="126.87" transform="matrix(0.2658 -0.964 0.964 0.2658 -2.1458 258.0691)" style="fill:#607EB3;" width="75.11" height="7.15"/>
	
		<rect x="238.34" y="153.9" transform="matrix(0.2658 -0.964 0.964 0.2658 48.2219 383.5125)" style="fill:#323D50;" width="75.11" height="12.4"/>
	
		<rect x="225.38" y="149.27" transform="matrix(0.2658 -0.964 0.964 0.2658 42.1497 368.3893)" style="fill:#8DBCD2;" width="75.11" height="14.49"/>
	
		<rect x="296.52" y="191.61" transform="matrix(0.2658 -0.964 0.964 0.2658 34.6883 440.1308)" style="fill:#3488CA;" width="19.56" height="11.35"/>
	
		<rect x="320.86" y="130.78" transform="matrix(0.2658 -0.964 0.964 0.2658 105.6514 411.6379)" style="fill:#3488CA;" width="4.44" height="11.35"/>
	
		<ellipse transform="matrix(0.2658 -0.964 0.964 0.2658 40.4128 437.8323)" style="fill:#DAD724;" cx="307.66" cy="192.38" rx="2.71" ry="2.71"/>
	<path style="fill:#C6BAC4;" d="M318.71,165.16c0.09-0.71-0.58-0.58-1.15-0.42c-0.57,0.16-2.19-0.08-2.77-0.24s-1.45-1.24-1.29-1.83
		c0.16-0.59,0.22-1.28-0.36-1.44s-1.39-0.7-1.59-2.25c-0.2-1.55-1.08-1.8-1.64-2.35c-0.56-0.55-2.67-0.03-3.56,0.04
		s-2.12-0.9-3.08-1.4c-0.97-0.5-1.05-2.5-2.06-2.54c-1.01-0.04-1.76,1.8-2.49,1.6c-0.73-0.2-1-4.38-1.81-6.89
		c-0.81-2.51-2.13-7.45-4.1-8.86s-1.01-2.33-0.27-2.76c0.75-0.42-1.12-1.1-2.14-0.83c-1.02,0.27-2.38,0.92-3.47,0.86
		c-1.09-0.06-3,1.15-4,0.48c-1-0.67-2,0.95-2.65-0.1s1.56-1.07,1.76-1.8c0.2-0.73-1.45-0.16-1.7-0.71s-1.3-1.3-1.48-0.64
		s-1.03,0.03-0.89-0.48c0.14-0.51-0.26-1.65-1.02-1.15c-0.77,0.5-2.85,0.32-3.15-0.32c-0.3-0.63,0.5-0.65,0.75-1.29
		c0.26-0.64-0.31-1.74,0.06-2.51c0.37-0.77-0.95-2-1.76-1.91c-0.81,0.09-1.76-0.49-2.46-1.07s-4.02-0.87-4.37-0.18
		s-4.47,0.19-5.28,0.28c-0.81,0.09-3.87-0.28-4.93-0.41c-1.07-0.14-2.34,0.46-3.66,0.1c-1.32-0.36-3.85-0.9-5.27-0.35
		c-1.42,0.56-3.12-0.7-4.08-0.65c-0.96,0.05-2.31-0.79-2.83-0.62c-0.52,0.17-0.86,1.97-0.62,2.83c0.24,0.85,2.5,1.79,2.53,2.27
		c0.03,0.48-2.47-0.21-3.68-0.38s-1.32,1.37-1.23,2.18c0.09,0.81-1.58,1.14-2.54,1.19c-0.96,0.05-0.49,1.76,0.39,2
		c0.88,0.24,1.41,1.18,2.14,1.38s0.48,1.71,0.23,2.59s-1.2,0.93-2.38,0.61c-1.17-0.32-1.52-1.36-2.21-1.71
		c-0.69-0.35-0.95,1.16-1.62,1.29c-0.67,0.13-0.45-1.23-1.33-1.47c-0.88-0.24-1.87-0.67-1.92-1.63c-0.05-0.96-2.06-1.67-3.19-1.04
		c-1.12,0.64-1.29,0.12-1.87-0.67s-3.01-0.52-3.51,0.14c-0.5,0.65-2.19,0.5-3.16-0.56c-0.97-1.06-1.62-1.55-1.91-0.53
		c-0.28,1.03-0.92-0.1-0.76-0.68c0.16-0.59-1.42-2.29-2.14-3.11c-0.72-0.83-3.5-1.6-3.49-2.22c0.02-0.63-1.62-1.55-2.35-0.65
		s-1.25-0.03-1.76-0.49c-0.51-0.45-2.03-0.09-2.69,0.05c-0.67,0.13-2.94,0.93-3.96,0.64s-0.8,1.2-2.2,1.13
		c-1.4-0.07-1.35,0.89-1.36,1.52c-0.02,0.63,0.44,1.86-0.86,1.97c-1.29,0.12-1.21-1.91-2.03-2.93c-0.82-1.02-1.95-0.38-2.23,0.65
		c-0.28,1.03-1.46,0.7-2.33,1.57c-0.87,0.86,0.7,1.46,0.58,1.9c-0.12,0.44-1.12,0.64-1.46,0.7c-0.33,0.07-1.47,1.33-1.3,1.85
		s1.97,0.86,1.54,1.85c-0.43,0.99-0.86,1.97,0.1,1.92c0.96-0.05,1.8,0.34,2.39,0.5s0.7,1.46,1.41,2.91c0.7,1.46,0.98,2.16-0.13,2.17
		c-1.11,0.01-0.83,0.72,0.33,1.67c0.31,0.25,0.61,0.59,0.89,0.93c0.25-0.08,0.5-0.17,0.72-0.28c2.07-1.01,5.47-1.54,7.56-0.34
		c2.09,1.21,4.21,0.74,4.81,2.38c0.6,1.64-1.08,3.91-0.96,5c0.12,1.09-2.06,0.59-3.47-0.01c-1.41-0.6-4.66-0.65-4.51,0.33
		c0.15,0.99,0.66,3.34-1,1.72c-1.66-1.61-3.03,0.32-1.96,0.62c1.08,0.3,2.19,1.97,1.95,2.85c-0.24,0.88-0.69,2.86,0.37,2.84
		c1.06-0.02,0.57,1.74,1.97,2.02c1.39,0.28,2.53,1.12,1.11,2.09c-1.43,0.97-0.64,4.98-0.03,4.3c0.38-0.42,0.46-1.55,1.03-2.12
		c-0.27-2.01,2.97-1.12,3.91-0.86c1.04,0.29,2.44,2.36,3.18,4.25c0.74,1.89,2.2,1.17,2.2,1.17l4.42-14.51l8.98,0.07
		c0.14-0.18,0.28-0.35,0.43-0.48c1.51-1.27,2.6,0.43,3,0.93c0.34,0.42,0.65-1.61,1.8-1.19c1.15,0.42-0.64,1.93,0.24,2.17
		c0.69,0.19,1.58,3.05,0.56,4.82c1.01,1.43,2.67,4.6,2.7,5.29c0.05,0.86,3.8,0.49,4.38,0.93c0.58,0.44,5.67,1.85,6.59,2.1
		s1.1,2.13,2.07,2.68c0.97,0.55,0.11,2.14-0.08,3.35c-0.19,1.21,1.05,2.82,0.89,3.9c-0.16,1.08,1.68,1.03,2.65,1.58
		c0.97,0.55,2.43,1.37,2.27,2.45c-0.16,1.08,1.36,0.66,1.71-0.09c0.35-0.75,1.94-1.43,4.11-1.67c0.98-0.11,1.56,0.05,1.96,0.34
		c0.62-0.84,1.21-1.53,1.5-1.57c0.77-0.1,2.3-0.73,2.67-1.68c0.37-0.95,3.01-0.22,4.52,1.14c1.52,1.36,2.59,1.66,3.07,0.32
		c0.48-1.34,3.12-1.03,3.8-0.43c0.68,0.61,2.74,2.65,4.05,2.48c1.31-0.16,7.01,2.04,8.37,2.83c1.36,0.8,2.02-0.07,2.89,1.74
		c0.73,1.53,1.55,0.56,2.47,1.84c0.1-0.37,0.15-0.87,0.29-1.36c0.26-0.95,1.95-1.36,2.45-2.01s-0.51-3.3-0.31-4.03
		c0.2-0.73,0.69-2.49,0.06-3.06c-0.63-0.57,1.76-0.94,2.25-0.77c1.08,0.35,2.94-0.36,3.28,0.25c0.34,0.6,1.25,1,2.2,1.26
		c0.95,0.26,0.84-0.93,0.43-1.56c-0.41-0.62,3.03-4.41,3.78-5.8c0.75-1.4,1.19,0.18,2.23,0.62c1.04,0.43,2.39,0.58,2.97,1.11
		c0.59,0.52,2.75,0.32,3.43-0.29c0.68-0.61-0.28-1.1,0.25-2.77c0.53-1.67,1.77-2.21,2.86-1.91c1.08,0.3,1.7-0.62,1.93-1.43
		c0.2-0.74,1.21-0.96,1.73-1.81C318.82,166.12,318.66,165.55,318.71,165.16z M231.1,156.41c-0.54,0.43-4.13-1.64-4.23-2.51
		C226.75,152.96,232.26,155.5,231.1,156.41z M286.7,171.37c-2.74-0.75-8.42-3.79-11.59-1.83s-1.79,3.82-2.92,3.72
		c-1.21-0.11-0.65-4.49,1.09-5.49c1.75-0.99,6.31-0.36,8.86,1.07c2.55,1.44,7.79,1.52,8.42,1.9
		C291.18,171.14,289.44,172.13,286.7,171.37z"/>
	
		<text transform="matrix(-0.2658 0.964 -0.964 -0.2658 320.045 139.4807)" style="fill:#20376E; font-family:'Arial-BoldMT'; font-size:4.5678px;">10000</text>
	<g>
		
			<rect x="210.28" y="84.68" transform="matrix(4.490015e-11 -1 1 4.490015e-11 79.4746 416.1898)" style="opacity:0.4;fill:#636363;" width="75.11" height="167.35"/>
		
			<rect x="208.77" y="86.19" transform="matrix(4.490015e-11 -1 1 4.490015e-11 76.4628 416.1898)" style="fill:#97A7CD;" width="75.11" height="167.35"/>
		
			<rect x="128.67" y="166.29" transform="matrix(4.494900e-11 -1 1 4.494900e-11 -3.6347 336.0923)" style="fill:#607EB3;" width="75.11" height="7.15"/>
		
			<rect x="240.23" y="163.66" transform="matrix(4.490015e-11 -1 1 4.490015e-11 107.9202 447.6472)" style="fill:#323D50;" width="75.11" height="12.4"/>
		
			<rect x="226.78" y="162.62" transform="matrix(4.490015e-11 -1 1 4.490015e-11 94.4713 434.1983)" style="fill:#8DBCD2;" width="75.11" height="14.49"/>
		
			<rect x="307.2" y="191.96" transform="matrix(4.482110e-11 -1 1 4.482110e-11 119.3443 514.6192)" style="fill:#3488CA;" width="19.56" height="11.35"/>
		
			<rect x="314.76" y="128.85" transform="matrix(4.502183e-11 -1 1 4.502183e-11 182.4506 451.5128)" style="fill:#3488CA;" width="4.44" height="11.35"/>
		<circle style="fill:#DAD724;" cx="316.98" cy="192.55" r="2.71"/>
		<path style="fill:#C6BAC4;" d="M320.4,163.36c-0.1-0.71-0.71-0.41-1.22-0.1c-0.51,0.3-2.13,0.51-2.74,0.51
			c-0.61,0-1.73-0.81-1.73-1.42c0-0.61-0.13-1.29-0.73-1.29s-1.52-0.3-2.13-1.75c-0.61-1.44-1.52-1.44-2.21-1.83
			c-0.68-0.38-2.59,0.68-3.42,0.99c-0.84,0.3-2.28-0.3-3.35-0.53c-1.06-0.23-1.67-2.13-2.66-1.9c-0.99,0.23-1.22,2.21-1.98,2.21
			c-0.76,0-2.13-3.95-3.57-6.16c-1.44-2.21-4.03-6.62-6.31-7.45c-2.28-0.84-1.6-1.98-0.99-2.59c0.61-0.61-1.37-0.76-2.28-0.23
			c-0.91,0.53-2.05,1.52-3.12,1.75c-1.06,0.23-2.59,1.9-3.73,1.52c-1.14-0.38-1.67,1.44-2.59,0.61s1.22-1.44,1.22-2.21
			s-1.44,0.23-1.83-0.23c-0.38-0.46-1.6-0.91-1.6-0.23c0,0.68-0.99,0.3-0.99-0.23c0-0.53-0.68-1.52-1.29-0.84
			c-0.61,0.68-2.66,1.06-3.12,0.53c-0.46-0.53,0.3-0.76,0.38-1.44s-0.76-1.6-0.61-2.43s-1.44-1.67-2.21-1.37
			c-0.76,0.3-1.83,0-2.66-0.38c-0.84-0.38-4.11,0.23-4.26,0.99s-4.26,1.37-5.02,1.67c-0.76,0.3-3.8,0.76-4.87,0.91
			c-1.06,0.15-2.13,1.06-3.5,1.06c-1.37,0-3.95,0.15-5.17,1.06c-1.22,0.91-3.19,0.15-4.11,0.46c-0.91,0.3-2.43-0.15-2.89,0.15
			c-0.46,0.3-0.3,2.13,0.15,2.89s2.89,1.06,3.04,1.52c0.15,0.46-2.43,0.46-3.65,0.61c-1.22,0.15-0.91,1.67-0.61,2.43
			c0.3,0.76-1.22,1.52-2.13,1.83c-0.91,0.3,0,1.83,0.91,1.83s1.67,0.76,2.43,0.76s0.91,1.52,0.91,2.43s-0.91,1.22-2.13,1.22
			c-1.22,0-1.83-0.91-2.59-1.06c-0.76-0.15-0.61,1.37-1.22,1.67s-0.76-1.06-1.67-1.06s-1.98-0.15-2.28-1.06
			c-0.3-0.91-2.43-1.06-3.35-0.15s-1.22,0.46-1.98-0.15s-3.04,0.3-3.35,1.06c-0.3,0.76-1.98,1.06-3.19,0.3
			c-1.22-0.76-1.98-1.06-1.98,0c0,1.06-0.91,0.15-0.91-0.46s-1.98-1.83-2.89-2.43c-0.91-0.61-3.8-0.61-3.95-1.22s-1.98-1.06-2.43,0
			c-0.46,1.06-1.22,0.3-1.83,0c-0.61-0.3-1.98,0.46-2.59,0.76c-0.61,0.3-2.59,1.67-3.65,1.67c-1.06,0-0.46,1.37-1.83,1.67
			c-1.37,0.3-1.06,1.22-0.91,1.83s0.91,1.67-0.3,2.13c-1.22,0.46-1.67-1.52-2.74-2.28c-1.06-0.76-1.98,0.15-1.98,1.22
			c0,1.06-1.22,1.06-1.83,2.13s1.06,1.22,1.06,1.67c0,0.46-0.91,0.91-1.22,1.06c-0.3,0.15-1.06,1.67-0.76,2.13
			c0.3,0.46,2.13,0.3,1.98,1.37c-0.15,1.06-0.3,2.13,0.61,1.83c0.91-0.3,1.83-0.15,2.43-0.15s1.06,1.22,2.13,2.43
			c1.06,1.22,1.52,1.83,0.46,2.13c-1.06,0.3-0.61,0.91,0.76,1.52c0.36,0.16,0.74,0.4,1.11,0.66c0.22-0.15,0.43-0.3,0.62-0.46
			c1.73-1.52,4.87-2.94,7.2-2.33c2.33,0.61,4.26-0.4,5.27,1.01c1.01,1.42,0,4.06,0.41,5.07c0.41,1.01-1.83,1.12-3.35,0.91
			c-1.52-0.2-4.67,0.61-4.26,1.52s1.52,3.04-0.51,1.93c-2.03-1.11-2.84,1.11-1.73,1.11c1.12,0,2.64,1.32,2.64,2.23
			s0.1,2.94,1.11,2.64c1.01-0.3,1.01,1.52,2.43,1.42c1.42-0.1,2.74,0.4,1.62,1.72c-1.12,1.32,0.71,4.97,1.11,4.16
			c0.25-0.51,0.03-1.62,0.43-2.32c-0.79-1.86,2.57-1.87,3.54-1.87c1.08,0,2.98,1.63,4.2,3.25c1.22,1.62,2.44,0.54,2.44,0.54
			l0.41-15.16l8.67-2.31c0.08-0.21,0.18-0.41,0.29-0.58c1.12-1.62,2.62-0.28,3.14,0.1c0.44,0.32,0.2-1.73,1.42-1.62
			c1.22,0.1-0.1,2.03,0.81,2.03c0.71,0,2.33,2.52,1.82,4.5c1.35,1.11,3.79,3.73,4.01,4.38c0.27,0.81,3.79-0.54,4.47-0.27
			c0.68,0.27,5.96,0.27,6.91,0.27c0.95,0,1.63,1.76,2.71,2.03c1.08,0.27,0.68,2.03,0.81,3.25c0.14,1.22,1.76,2.44,1.9,3.52
			c0.14,1.08,1.89,0.54,2.98,0.81c1.08,0.27,2.71,0.68,2.84,1.76c0.14,1.08,1.49,0.27,1.62-0.54c0.14-0.81,1.49-1.9,3.52-2.71
			c0.91-0.37,1.52-0.37,1.98-0.19c0.38-0.97,0.76-1.79,1.03-1.91c0.71-0.3,2.03-1.32,2.13-2.33c0.1-1.01,2.84-1.01,4.67-0.1
			s2.94,0.91,3.04-0.51c0.1-1.42,2.74-1.83,3.55-1.42c0.81,0.41,3.35,1.83,4.56,1.32c1.22-0.51,7.3,0.1,8.82,0.51
			c1.52,0.41,1.93-0.61,3.25,0.91c1.11,1.28,1.64,0.13,2.87,1.11c0-0.39-0.08-0.88-0.08-1.39c0-0.99,1.52-1.83,1.83-2.59
			s-1.37-3.04-1.37-3.8s0-2.59-0.76-2.97c-0.76-0.38,1.44-1.37,1.97-1.34c1.13,0.05,2.74-1.12,3.23-0.63
			c0.49,0.49,1.47,0.63,2.46,0.63c0.98,0,0.56-1.12,0-1.61c-0.56-0.49,1.75-5.06,2.11-6.6c0.35-1.54,1.19-0.14,2.32,0
			c1.12,0.14,2.46-0.07,3.16,0.28c0.7,0.35,2.74-0.42,3.23-1.19c0.49-0.77-0.56-0.98-0.49-2.74c0.07-1.75,1.12-2.6,2.25-2.6
			c1.12,0,1.48-1.05,1.48-1.89c0-0.76,0.91-1.24,1.19-2.21C320.76,164.26,320.45,163.75,320.4,163.36z M233.61,178.22
			c-0.41,0.56-4.42-0.48-4.75-1.3C228.5,176.05,234.49,177.03,233.61,178.22z M291.19,177.86c-2.84,0-9.13-1.42-11.66,1.32
			c-2.54,2.74-0.71,4.16-1.83,4.36c-1.2,0.22-1.83-4.16-0.41-5.58c1.42-1.42,5.98-2.03,8.82-1.32c2.84,0.71,7.91-0.61,8.62-0.4
			C295.45,176.44,294.03,177.86,291.19,177.86z"/>
	</g>
	
		<rect x="240.23" y="163.66" transform="matrix(4.490015e-11 -1 1 4.490015e-11 107.9202 447.6472)" style="fill:#323D50;" width="75.11" height="12.4"/>
	
		<rect x="226.78" y="162.62" transform="matrix(4.490015e-11 -1 1 4.490015e-11 94.4713 434.1983)" style="fill:#8DBCD2;" width="75.11" height="14.49"/>
	
		<rect x="307.2" y="191.96" transform="matrix(4.482110e-11 -1 1 4.482110e-11 119.3443 514.6192)" style="fill:#3488CA;" width="19.56" height="11.35"/>
	
		<rect x="314.76" y="128.85" transform="matrix(4.502183e-11 -1 1 4.502183e-11 182.4506 451.5128)" style="fill:#3488CA;" width="4.44" height="11.35"/>
	<circle style="fill:#DAD724;" cx="316.98" cy="192.55" r="2.71"/>
	<path style="fill:#C6BAC4;" d="M320.4,163.36c-0.1-0.71-0.71-0.41-1.22-0.1c-0.51,0.3-2.13,0.51-2.74,0.51
		c-0.61,0-1.73-0.81-1.73-1.42c0-0.61-0.13-1.29-0.73-1.29s-1.52-0.3-2.13-1.75c-0.61-1.44-1.52-1.44-2.21-1.83
		c-0.68-0.38-2.59,0.68-3.42,0.99c-0.84,0.3-2.28-0.3-3.35-0.53c-1.06-0.23-1.67-2.13-2.66-1.9c-0.99,0.23-1.22,2.21-1.98,2.21
		c-0.76,0-2.13-3.95-3.57-6.16c-1.44-2.21-4.03-6.62-6.31-7.45c-2.28-0.84-1.6-1.98-0.99-2.59c0.61-0.61-1.37-0.76-2.28-0.23
		c-0.91,0.53-2.05,1.52-3.12,1.75c-1.06,0.23-2.59,1.9-3.73,1.52c-1.14-0.38-1.67,1.44-2.59,0.61s1.22-1.44,1.22-2.21
		s-1.44,0.23-1.83-0.23c-0.38-0.46-1.6-0.91-1.6-0.23c0,0.68-0.99,0.3-0.99-0.23c0-0.53-0.68-1.52-1.29-0.84
		c-0.61,0.68-2.66,1.06-3.12,0.53c-0.46-0.53,0.3-0.76,0.38-1.44s-0.76-1.6-0.61-2.43s-1.44-1.67-2.21-1.37
		c-0.76,0.3-1.83,0-2.66-0.38c-0.84-0.38-4.11,0.23-4.26,0.99s-4.26,1.37-5.02,1.67c-0.76,0.3-3.8,0.76-4.87,0.91
		c-1.06,0.15-2.13,1.06-3.5,1.06c-1.37,0-3.95,0.15-5.17,1.06c-1.22,0.91-3.19,0.15-4.11,0.46c-0.91,0.3-2.43-0.15-2.89,0.15
		c-0.46,0.3-0.3,2.13,0.15,2.89s2.89,1.06,3.04,1.52c0.15,0.46-2.43,0.46-3.65,0.61c-1.22,0.15-0.91,1.67-0.61,2.43
		c0.3,0.76-1.22,1.52-2.13,1.83c-0.91,0.3,0,1.83,0.91,1.83s1.67,0.76,2.43,0.76s0.91,1.52,0.91,2.43s-0.91,1.22-2.13,1.22
		c-1.22,0-1.83-0.91-2.59-1.06c-0.76-0.15-0.61,1.37-1.22,1.67s-0.76-1.06-1.67-1.06s-1.98-0.15-2.28-1.06
		c-0.3-0.91-2.43-1.06-3.35-0.15s-1.22,0.46-1.98-0.15s-3.04,0.3-3.35,1.06c-0.3,0.76-1.98,1.06-3.19,0.3
		c-1.22-0.76-1.98-1.06-1.98,0c0,1.06-0.91,0.15-0.91-0.46s-1.98-1.83-2.89-2.43c-0.91-0.61-3.8-0.61-3.95-1.22s-1.98-1.06-2.43,0
		c-0.46,1.06-1.22,0.3-1.83,0c-0.61-0.3-1.98,0.46-2.59,0.76c-0.61,0.3-2.59,1.67-3.65,1.67c-1.06,0-0.46,1.37-1.83,1.67
		c-1.37,0.3-1.06,1.22-0.91,1.83s0.91,1.67-0.3,2.13c-1.22,0.46-1.67-1.52-2.74-2.28c-1.06-0.76-1.98,0.15-1.98,1.22
		c0,1.06-1.22,1.06-1.83,2.13s1.06,1.22,1.06,1.67c0,0.46-0.91,0.91-1.22,1.06c-0.3,0.15-1.06,1.67-0.76,2.13
		c0.3,0.46,2.13,0.3,1.98,1.37c-0.15,1.06-0.3,2.13,0.61,1.83c0.91-0.3,1.83-0.15,2.43-0.15s1.06,1.22,2.13,2.43
		c1.06,1.22,1.52,1.83,0.46,2.13c-1.06,0.3-0.61,0.91,0.76,1.52c0.36,0.16,0.74,0.4,1.11,0.66c0.22-0.15,0.43-0.3,0.62-0.46
		c1.73-1.52,4.87-2.94,7.2-2.33c2.33,0.61,4.26-0.4,5.27,1.01c1.01,1.42,0,4.06,0.41,5.07c0.41,1.01-1.83,1.12-3.35,0.91
		c-1.52-0.2-4.67,0.61-4.26,1.52s1.52,3.04-0.51,1.93c-2.03-1.11-2.84,1.11-1.73,1.11c1.12,0,2.64,1.32,2.64,2.23
		s0.1,2.94,1.11,2.64c1.01-0.3,1.01,1.52,2.43,1.42c1.42-0.1,2.74,0.4,1.62,1.72c-1.12,1.32,0.71,4.97,1.11,4.16
		c0.25-0.51,0.03-1.62,0.43-2.32c-0.79-1.86,2.57-1.87,3.54-1.87c1.08,0,2.98,1.63,4.2,3.25c1.22,1.62,2.44,0.54,2.44,0.54
		l0.41-15.16l8.67-2.31c0.08-0.21,0.18-0.41,0.29-0.58c1.12-1.62,2.62-0.28,3.14,0.1c0.44,0.32,0.2-1.73,1.42-1.62
		c1.22,0.1-0.1,2.03,0.81,2.03c0.71,0,2.33,2.52,1.82,4.5c1.35,1.11,3.79,3.73,4.01,4.38c0.27,0.81,3.79-0.54,4.47-0.27
		c0.68,0.27,5.96,0.27,6.91,0.27c0.95,0,1.63,1.76,2.71,2.03c1.08,0.27,0.68,2.03,0.81,3.25c0.14,1.22,1.76,2.44,1.9,3.52
		c0.14,1.08,1.89,0.54,2.98,0.81c1.08,0.27,2.71,0.68,2.84,1.76c0.14,1.08,1.49,0.27,1.62-0.54c0.14-0.81,1.49-1.9,3.52-2.71
		c0.91-0.37,1.52-0.37,1.98-0.19c0.38-0.97,0.76-1.79,1.03-1.91c0.71-0.3,2.03-1.32,2.13-2.33c0.1-1.01,2.84-1.01,4.67-0.1
		s2.94,0.91,3.04-0.51c0.1-1.42,2.74-1.83,3.55-1.42c0.81,0.41,3.35,1.83,4.56,1.32c1.22-0.51,7.3,0.1,8.82,0.51
		c1.52,0.41,1.93-0.61,3.25,0.91c1.11,1.28,1.64,0.13,2.87,1.11c0-0.39-0.08-0.88-0.08-1.39c0-0.99,1.52-1.83,1.83-2.59
		s-1.37-3.04-1.37-3.8s0-2.59-0.76-2.97c-0.76-0.38,1.44-1.37,1.97-1.34c1.13,0.05,2.74-1.12,3.23-0.63
		c0.49,0.49,1.47,0.63,2.46,0.63c0.98,0,0.56-1.12,0-1.61c-0.56-0.49,1.75-5.06,2.11-6.6c0.35-1.54,1.19-0.14,2.32,0
		c1.12,0.14,2.46-0.07,3.16,0.28c0.7,0.35,2.74-0.42,3.23-1.19c0.49-0.77-0.56-0.98-0.49-2.74c0.07-1.75,1.12-2.6,2.25-2.6
		c1.12,0,1.48-1.05,1.48-1.89c0-0.76,0.91-1.24,1.19-2.21C320.76,164.26,320.45,163.75,320.4,163.36z M233.61,178.22
		c-0.41,0.56-4.42-0.48-4.75-1.3C228.5,176.05,234.49,177.03,233.61,178.22z"/>
</g>
<path style="fill:#F9C290;" d="M360.35,207.77c-5.76-5.21-38.14-17.63-49.47-20.33c-5.33-1.53-12.99-3.01-15.4-10.73
	c-1.66-5.3-0.47-11.17,3.1-15.43c2.78-3.31,7.41-6.18,14.85-4.44c14.87,4.8,18.26,6.12,18.26,6.12l38.41,13.18
	c0,0,35.39,9.98,45.18,9.98s6.21-23.2,15.81-17.08c10.54,1.13,14.59,1.27,14.59,1.27l8.99-0.35l14.31,64.76l-23.99-1.27l-24.27,1.75
	c0,0-16.37,8.5-40.46-5.43c0,0-14.4-9.96-16.47-18.53C363.77,211.24,362.04,209.3,360.35,207.77z"/>
<path style="fill:#E1AF84;" d="M299.73,160.9c0,0-3.35,11.64,1.48,16.47c4.83,4.83,36.37,10.78,45.59,15.58s20.16,10.61,20.16,10.61
	s4.43,15.89,22.88,23.24c11.67,5.08,18.69,6.68,34.41,3.1l16.22-1.12c2.89-0.2,5.8-0.22,8.7-0.06l19.45,1.08l0.35,4.93l-23.16-1.22
	c-0.68-0.04-1.37-0.03-2.05,0.02l-22.13,1.6c-0.62,0.04-1.22,0.2-1.78,0.46c-3.1,1.43-15.62,5.87-36.08-3.79
	c-11-5.29-19.69-17.37-20.06-20.56c-1.88-1.59-3.35-3.47-3.35-3.47s-18.99-12.33-48.64-19.95c-4.59-1.4-15.24-3.67-16.62-12.58
	C293.52,165.18,299.73,160.9,299.73,160.9z"/>
<path style="fill:#FCE0D4;" d="M298.7,177.68c0,0,16.78,10.68,21.62-2.02c5.27-13.84-14.5-16.72-14.5-16.72S296.57,165,298.7,177.68
	z"/>
<path style="fill:#F9C290;" d="M158.25,265.94l49.07-8.14c3.05-0.51,5.85-2.18,7.68-4.67l15.5-20.96c1.55-2.1,3.76-3.63,6.26-4.35
	l12.62-3.67c2.41-0.7,4.97-0.62,7.33,0.22c5.2,1.87,14.23,5.08,14.77,5.08c0.77,0,0.26,9.7-9.94,8.16
	c-10.21-1.53-8.16-1.15-8.16-1.15s0,0-9.06,6.12c-0.77,1.91,0,0-7.14,14.54c9.6-4.36,27.43-12.94,34.93-16.56
	c2.26-1.09,4.8-1.46,7.29-1.06l23.44,3.8c1.21,0.2,2.39,0.58,3.49,1.12l17.34,8.62c2.83,1.41,3.76,5.06,1.86,7.57
	c-3.38,4.46-11.04,8.54-27.87-1.71l-17.48,1.4l-16.33,11.23c11.42-1.01,26.38-2.47,33.94-3.22c3.13-0.31,6.27,0.49,8.87,2.26
	l33.8,23.04c1.43,0.97,1.91,2.89,1.06,4.39c-2.37,4.19-9.01,10.14-25.75-2.87l-13.52-5.36c-1.91,0.89,0,0-32.79,3.95
	c9.72,5.38,22.06,12.28,29.88,16.65c4.41,2.47,6.39,7.75,4.7,12.51l-12.63,35.51c-0.85,2.39-3.54,3.55-5.87,2.55
	c-4.07-1.74-8.75-6.42-4.59-19l3.83-15.82c-22.84-6.12,0,0-22.84-6.12c-9.05-2.43-27.43,4.98-30.24,14.42
	c-1.91,5.74,9.06,10.46,12.12,11.35c3.06,0.89,0,0,18.24,5.23c6.12,0.38,22.39,3.06,21.05,14.54c-1.15,6.25-8.68,6-14.67,5.23
	c-6-0.77-17.1,0.39-17.1,0.39l-48.63-9.04c-1.92-0.36-3.76-1.05-5.44-2.06l-25.9-15.53c-7.16-4.29-15.61-6.56-23.95-6.57
	c-22.87-0.03-48.94,0.53-81.13,0.95c0,0-18.45-38.62-19.87-73.26C75.67,265.76,158.25,265.94,158.25,265.94z"/>
<path style="fill:#E1AF84;" d="M47.76,277.65l110.55-1.25l73-16.71l5.87-2.55l7.14-14.54l9.06-6.12c0,0,19.63,7.14,18.11-7.02
	c-10.8-3.66-17.72-5.77-17.72-5.77l-20.41,5.14l-20.79,27.56l-54.03,9.57l-112.12-0.25L47.76,277.65z"/>
<polygon style="fill:#E1AF84;" points="258.74,272.19 263.84,271.56 280.17,260.33 276.35,259.31 "/>
<polygon style="fill:#E1AF84;" points="262.18,288.14 264.61,294.52 293.45,291.03 "/>
<path style="fill:#FCE0D4;" d="M281.81,368.48c-0.31-3.04-1.49-5.03-1.49-5.03s-14.57-4.65-15.59,6.64
	c-0.01,0.16-0.01,0.31-0.02,0.47c1.35,0.03,2.63,0.11,3.73,0.25C273.29,371.43,279.14,371.71,281.81,368.48z"/>
<path style="fill:#FCE0D4;" d="M341.89,295.89c-1.43,2.08-4.4,3.23-4.4,3.23s-10.76-1.98-7.02-10.56c0.05-0.12,0.87-0.98,0.92-1.1
	c0.99,0.51,1.75,1.2,2.51,1.71C337.77,291.81,341.14,293.97,341.89,295.89z"/>
<path style="fill:#FCE0D4;" d="M326.55,255.38c-0.94,2.1-3.4,3.63-3.4,3.63s-9.98,0.02-8.05-8.3c0.03-0.12,0.61-1.02,0.65-1.14
	c0.97,0.3,1.77,0.78,2.54,1.12C322.18,252.4,325.55,253.78,326.55,255.38z"/>
<path style="fill:#A1B1B2;" d="M305.98,377.65c-11.84,0-21.43,9.6-21.43,21.43c0,11.84,9.6,21.43,21.43,21.43
	c11.84,0,21.43-9.6,21.43-21.43C327.41,387.24,317.82,377.65,305.98,377.65z M302.31,395.97c-2.96,0-5.36-2.4-5.36-5.36
	c0-2.96,2.4-5.36,5.36-5.36c2.96,0,5.36,2.4,5.36,5.36C307.67,393.58,305.27,395.97,302.31,395.97z"/>
<polygon style="fill:#A1B1B2;" points="314.3,442.38 318.03,438.17 314.23,433.58 314.23,415.05 297.58,415.05 297.58,465 
	298.61,465 298.59,465.01 305.97,471.81 314.23,464.83 314.23,459.35 317.93,455.65 314.23,450.93 318.03,446.72 "/>
<rect x="300.91" y="418.38" style="fill:#8A9596;" width="3.33" height="45.51"/>
<path style="fill:#E3A328;" d="M280.64,385.18l-5.57-2.89l-5.61-2.81c0,0-25.13,1.66-28.07,6.38c-2.93,4.72-33.68,64.43-33.68,64.43
	s-3.44,6.12,2.04,9.7c4.66,3.04,16.79,8.93,20.32,10.63c3.45,1.86,15.34,8.2,20.54,10.19c6.11,2.34,9.04-4.05,9.04-4.05
	s30.23-59.97,32.32-65.12C294.07,406.49,280.64,385.18,280.64,385.18z M271.96,396.12c-2.14,1.23-4.87,0.5-6.1-1.63
	c-1.23-2.14-0.5-4.87,1.63-6.1c2.14-1.23,4.87-0.5,6.1,1.63C274.82,392.15,274.09,394.88,271.96,396.12z"/>
<path style="fill:none;stroke:#206D7D;stroke-width:3;stroke-linecap:round;stroke-miterlimit:10;" d="M278,382.64
	c1.64-2.18,3.38-3.78,5.36-3.79c4.04-0.04,6.77,1.61,8.8,3.85"/>
<path style="fill:none;stroke:#206D7D;stroke-width:3;stroke-linecap:round;stroke-miterlimit:10;" d="M263.08,371.96
	c0,0-6.05,16.71,1.63,21.82c2.8,1.86,5.11,0.39,7.25-2.24"/>
<path style="fill:none;stroke:#206D7D;stroke-width:3;stroke-linecap:round;stroke-miterlimit:10;" d="M298.03,388.8
	c1.67,3.21,2.06,7.03,5.1,4.59c10.74-8.59-4.98-35.83-22.28-35.34"/>
<g>
	<g>
		<path style="fill:#FFFFFF;" d="M255.84,418.16l-16.82,4.21c-0.01,0.01-0.02,0.03-0.04,0.06c-0.02,0.02-0.03,0.04-0.04,0.06
			l-4.8,10.09c-0.17,0.36-0.19,0.74-0.05,1.14c0.14,0.39,0.39,0.68,0.76,0.85l8.07,3.84l3.84-8.07l5.38,2.56l-3.84,8.07l8.07,3.84
			c0.36,0.17,0.74,0.19,1.14,0.05c0.39-0.14,0.68-0.39,0.85-0.76l4.8-10.09c0.03-0.06,0.04-0.1,0.04-0.14L255.84,418.16z"/>
		<path style="fill:#FFFFFF;" d="M268.89,433.8l-2.78-6.01l4.08-8.57c0.09-0.2,0.11-0.39,0.04-0.57c-0.07-0.19-0.2-0.33-0.39-0.42
			l-4.03-1.92c-0.2-0.09-0.39-0.11-0.57-0.04c-0.19,0.07-0.33,0.2-0.42,0.39l-1.95,4.1l-3.09-6.73c-0.27-0.58-0.72-1.01-1.34-1.31
			c-0.62-0.29-1.24-0.36-1.86-0.21l-21.1,5.4c-0.19,0.05-0.34,0.16-0.45,0.34c-0.1,0.18-0.13,0.37-0.09,0.56l0.56,2.17
			c0.05,0.18,0.16,0.33,0.33,0.44c0.16,0.09,0.35,0.12,0.57,0.09l20.31-5.21l8.77,19.04c0.07,0.15,0.19,0.27,0.37,0.36l0.06,0.03
			c0.2,0.06,0.38,0.05,0.55-0.02l2.04-0.94c0.18-0.09,0.31-0.23,0.38-0.42C268.98,434.16,268.98,433.97,268.89,433.8z"/>
	</g>
</g>
</svg>
