<?xml version="1.0" encoding="utf-8"?>
<!-- Generator: Adobe Illustrator 19.2.1, SVG Export Plug-In . SVG Version: 6.00 Build 0)  -->
<svg version="1.1" id="Layer_3" xmlns="http://www.w3.org/2000/svg"  x="0px" y="0px"
	 viewBox="0 0 512 512" style="enable-background:new 0 0 512 512;" xml:space="preserve">
<circle style="fill:#C0EBDF;" cx="258.5" cy="258.65" r="211.85"/>
<path style="fill:#87562D;" d="M435.57,375.5l-353,1.71c0,0,49.38,93.7,173.14,93.29C383,470.08,435.57,375.5,435.57,375.5z"/>
<path style="fill:#FFFFFF;" d="M121.83,213.28c-2.66,0-5.13,0.78-7.22,2.11c-1.63-8.5-9.09-14.93-18.07-14.93
	c-8.58,0-15.78,5.88-17.81,13.83c-2.47-1.92-5.56-3.08-8.93-3.08c-8.03,0-14.54,6.51-14.54,14.54s6.51,14.54,14.54,14.54h52.04
	c7.46,0,13.5-6.05,13.5-13.5S129.29,213.28,121.83,213.28z"/>
<path style="fill:#FFFFFF;" d="M273.97,111.76c-0.45,0-0.88,0.04-1.32,0.07c-5.6-10.8-17.58-17.39-30.3-15.55
	c-10.69,1.55-19.19,8.68-22.99,18.01c-3.05-1.61-6.52-2.53-10.2-2.53c-12.09,0-21.88,9.8-21.88,21.88s9.8,21.88,21.88,21.88h64.81
	c12.09,0,21.88-9.8,21.88-21.88S286.06,111.76,273.97,111.76z"/>
<path style="fill:#FFFFFF;" d="M419.67,171.51c-0.26,0-0.51,0.02-0.76,0.04c-3.23-6.24-10.16-10.05-17.5-8.98
	c-6.18,0.9-11.09,5.01-13.28,10.4c-1.76-0.93-3.76-1.46-5.89-1.46c-6.98,0-12.64,5.66-12.64,12.64c0,6.98,5.66,12.64,12.64,12.64
	h37.44c6.98,0,12.64-5.66,12.64-12.64C432.31,177.17,426.65,171.51,419.67,171.51z"/>
<path style="fill:#5E5E5E;" d="M429.33,385c4.21-5.85,6.24-9.5,6.24-9.5l-353,1.71c0,0,1.56,2.95,4.8,7.79H429.33z"/>
<path style="fill:#F48100;" d="M113.81,305.84c0,0,0.21-21.47,30.55-16.93c12.59-14.45,41.08-47.89,101.36-45.41
	c60.28,2.48,85.87,32.62,97.85,45.21c10.11-0.21,39.01,0,57.39,17.13C318.58,305.84,113.81,305.84,113.81,305.84z"/>
<path style="fill:#F65800;" d="M115.87,302.54c0,0-7.84,13.21-4.95,25.8c2.89,12.59,34.27,7.84,34.27,7.84s7.6-21.26,31.77-21.26
	s33.67,24.36,33.26,33.85h100.53c0,0,1.65-33.85,34.68-33.85s32.62,33.85,32.62,33.85h29.73c0,0,10.32-1.65,8.88-14.66
	c-1.45-13-9.5-29.31-23.53-31.58S115.87,302.54,115.87,302.54z"/>
<path style="fill:#FFFFFF;" d="M159.22,288.91c0,0,31.38-38.4,85.46-33.44c0,8.88,0,33.44,0,33.44H159.22z"/>
<path style="fill:#FFFFFF;" d="M255.83,255.03v33.88h71.42C327.25,288.91,296.29,255.03,255.83,255.03z"/>
<circle style="fill:#373D54;" cx="176.95" cy="347.33" r="28.26"/>
<circle style="fill:#FFFFFF;" cx="176.95" cy="347.33" r="15.09"/>
<circle style="fill:#373D54;" cx="345.81" cy="347.33" r="28.26"/>
<circle style="fill:#FFFFFF;" cx="345.81" cy="347.33" r="15.09"/>
<path style="fill:#B33400;" d="M142.5,348.78c0,0,0-4.75,2.68-12.59c-9.5,0-28.07-0.62-28.07-0.62s-5.57,0.21-5.57,6.61
	s6.19,6.61,6.19,6.61H142.5z"/>
<g>
	<path style="fill:#B33400;" d="M207.12,335.74c2.25,5.03,3.23,9.86,3.09,13.04h100.53c0,0,0.31-6.05,3.14-13.04H207.12z"/>
	<path style="fill:#B33400;" d="M416.73,335.74h-41.04c2.41,6.98,2.35,13.04,2.35,13.04h29.73
		C407.76,348.78,417.17,347.24,416.73,335.74z"/>
</g>
</svg>
