<?xml version="1.0" encoding="utf-8"?>
<!-- Generator: Adobe Illustrator 19.2.1, SVG Export Plug-In . SVG Version: 6.00 Build 0)  -->
<svg version="1.1" id="Layer_3" xmlns="http://www.w3.org/2000/svg"  x="0px" y="0px"
	 viewBox="0 0 512 512" style="enable-background:new 0 0 512 512;" xml:space="preserve">
<circle style="fill:#C0EBDF;" cx="259.5" cy="257.65" r="211.85"/>
<path style="fill:#FFFFFF;" d="M152.32,206.47c-3.58,0-6.91,1.05-9.73,2.84c-2.19-11.45-12.25-20.11-24.34-20.11
	c-11.56,0-21.25,7.93-23.99,18.63c-3.32-2.59-7.49-4.15-12.03-4.15c-10.82,0-19.59,8.77-19.59,19.59s8.77,19.59,19.59,19.59h70.1
	c10.05,0,18.19-8.14,18.19-18.19C170.51,214.62,162.37,206.47,152.32,206.47z"/>
<path style="fill:#FFFFFF;" d="M443.54,250.67c-3.58,0-6.91,1.05-9.73,2.84c-2.19-11.45-12.25-20.11-24.34-20.11
	c-11.56,0-21.25,7.93-23.99,18.63c-3.32-2.59-7.49-4.15-12.03-4.15c-10.82,0-19.59,8.77-19.59,19.59s8.77,19.59,19.59,19.59h70.1
	c10.05,0,18.19-8.14,18.19-18.19C461.73,258.81,453.59,250.67,443.54,250.67z"/>
<path style="fill:#FFFFFF;" d="M268.19,110.92c-0.26,0-0.51,0.02-0.76,0.04c-3.23-6.24-10.16-10.05-17.5-8.98
	c-6.18,0.9-11.09,5.01-13.28,10.4c-1.76-0.93-3.76-1.46-5.89-1.46c-6.98,0-12.64,5.66-12.64,12.64s5.66,12.64,12.64,12.64h37.44
	c6.98,0,12.64-5.66,12.64-12.64S275.17,110.92,268.19,110.92z"/>
<rect x="171.33" y="105.94" transform="matrix(0.9846 -0.1748 0.1748 0.9846 -34.5384 42.0097)" style="fill:#97A7CD;" width="99.75" height="222.25"/>
<rect x="152.74" y="107.58" transform="matrix(0.9846 -0.1748 0.1748 0.9846 -16.5164 37.1467)" style="fill:#607EB3;" width="99.75" height="9.5"/>
<rect x="178.64" y="249.97" transform="matrix(0.9846 -0.1748 0.1748 0.9846 -41.6164 43.9196)" style="fill:#323D50;" width="99.75" height="16.47"/>
<rect x="175.51" y="230.99" transform="matrix(0.9846 -0.1748 0.1748 0.9846 -38.5904 43.1031)" style="fill:#8DBCD2;" width="99.75" height="19.25"/>
<rect x="188.3" y="308.37" transform="matrix(0.9846 -0.1748 0.1748 0.9846 -52.1222 40.0502)" style="fill:#3488CA;" width="25.98" height="15.08"/>
<rect x="280.86" y="293.72" transform="matrix(0.9846 -0.1748 0.1748 0.9846 -48.2909 54.2493)" style="fill:#3488CA;" width="5.9" height="15.08"/>
<ellipse transform="matrix(0.9846 -0.1748 0.1748 0.9846 -51.8132 41.1956)" style="fill:#DAD724;" cx="207.95" cy="314.73" rx="3.61" ry="3.61"/>
<path style="fill:#C6BAC4;" d="M246.91,312.42c0.91-0.3,0.37-1.02-0.15-1.61c-0.52-0.59-1.16-2.67-1.3-3.46
	c-0.14-0.8,0.66-2.44,1.45-2.59s1.66-0.46,1.52-1.26c-0.14-0.8,0.04-2.06,1.79-3.19c1.75-1.13,1.54-2.32,1.87-3.31
	c0.34-0.98-1.5-3.22-2.09-4.25c-0.59-1.02-0.13-3.05-0.08-4.5c0.05-1.45,2.4-2.68,1.87-3.92s-3.17-1.08-3.34-2.07
	c-0.18-0.99,4.68-3.7,7.23-6.1c2.55-2.4,7.72-6.81,8.28-9.98c0.56-3.18,2.21-2.55,3.15-1.89c0.94,0.65,0.68-1.97-0.23-3.04
	s-2.47-2.33-3.01-3.67c-0.55-1.34-3.09-2.94-2.85-4.52c0.23-1.58-2.28-1.85-1.4-3.24c0.88-1.39,2.17,1.26,3.17,1.08
	c0.99-0.18-0.63-1.84-0.13-2.44s0.82-2.3-0.07-2.14c-0.9,0.16-0.63-1.22,0.07-1.35c0.7-0.12,1.83-1.25,0.79-1.88
	s-2.01-3.23-1.42-3.95s1.07,0.22,1.98,0.16c0.91-0.06,1.91-1.37,3.04-1.36s1.85-2.28,1.28-3.2s-0.42-2.39-0.12-3.57
	c0.3-1.18-1.25-5.32-2.28-5.34s-2.78-5.25-3.35-6.18s-1.88-4.8-2.32-6.15s-1.89-2.54-2.2-4.33c-0.32-1.79-1.12-5.14-2.59-6.52
	s-0.94-4.14-1.55-5.26c-0.61-1.12-0.37-3.22-0.87-3.74s-2.86,0.1-3.74,0.87c-0.89,0.77-0.72,4.03-1.28,4.33
	c-0.56,0.3-1.16-3.08-1.64-4.63c-0.48-1.56-2.4-0.8-3.32-0.23s-2.27-1.24-2.88-2.36c-0.61-1.12-2.39,0.42-2.17,1.62
	s-0.61,2.36-0.43,3.36c0.18,0.99-1.78,1.55-2.97,1.76c-1.19,0.21-1.8-0.91-2.09-2.5s0.77-2.6,0.79-3.63s-1.93-0.48-2.47-1.2
	c-0.54-0.72,1.22-1.24,1-2.43c-0.21-1.19-0.26-2.62,0.86-3.23c1.12-0.61,0.83-3.43-0.58-4.41c-1.41-0.98-0.88-1.49-0.26-2.62
	c0.62-1.14-1.1-3.91-2.17-4.13c-1.07-0.22-1.85-2.34-1.14-4.11c0.71-1.77,0.93-2.83-0.46-2.59c-1.39,0.25-0.41-1.16,0.38-1.3
	c0.8-0.14,1.93-3.01,2.51-4.34c0.58-1.33-0.09-5.11,0.67-5.45c0.76-0.34,0.93-2.83-0.56-3.18c-1.5-0.35-0.68-1.52-0.42-2.39
	c0.26-0.87-1.06-2.48-1.59-3.2c-0.54-0.72-2.79-2.99-3.04-4.39s-1.9-0.28-2.61-2c-0.72-1.72-1.84-1.11-2.6-0.77
	c-0.76,0.34-1.98,1.58-2.86,0.1c-0.88-1.49,1.6-2.54,2.35-4.11s-0.66-2.55-2.05-2.3c-1.39,0.25-1.67-1.34-3.21-1.89
	c-1.53-0.55-1.34,1.67-1.94,1.78c-0.6,0.11-1.41-0.98-1.67-1.34c-0.27-0.36-2.43-1-2.96-0.5c-0.53,0.5,0.1,2.86-1.33,2.9
	c-1.43,0.05-2.86,0.1-2.25,1.22c0.61,1.12,0.62,2.35,0.76,3.15c0.14,0.8-1.34,1.67-2.69,3.35s-2.03,2.41-2.68,1.09
	c-0.64-1.32-1.33-0.58-1.81,1.35c-0.13,0.51-0.36,1.06-0.61,1.6c0.24,0.25,0.49,0.5,0.74,0.7c2.39,1.9,4.98,5.68,4.72,8.87
	c-0.25,3.19,1.52,5.48-0.1,7.13c-1.62,1.66-5.3,0.94-6.53,1.71c-1.23,0.77-1.88-2.13-1.97-4.16c-0.09-2.04-1.88-5.96-2.98-5.22
	s-3.62,2.7-2.64-0.21c0.99-2.91-2.12-3.45-1.86-2c0.26,1.46-1.11,3.76-2.31,3.97c-1.19,0.21-3.82,0.81-3.19,2.07
	c0.63,1.26-1.75,1.68-1.29,3.51c0.46,1.83,0.11,3.67-1.88,2.52c-1.98-1.15-6.33,2.08-5.18,2.42c0.72,0.21,2.12-0.34,3.14,0.02
	c2.25-1.47,3.04,2.93,3.27,4.2c0.25,1.42-1.43,4.27-3.28,6.24c-1.84,1.97-0.14,3.31-0.14,3.31l19.92-2.99l5.04,10.81
	c0.3,0.06,0.58,0.14,0.82,0.25c2.38,1.08,0.97,3.36,0.6,4.14c-0.31,0.65,2.3-0.14,2.45,1.48c0.15,1.61-2.67,0.34-2.46,1.53
	c0.16,0.93-2.75,3.64-5.46,3.43c-1.14,2.02-3.99,5.83-4.8,6.26c-1,0.54,1.59,4.83,1.39,5.78c-0.2,0.95,1.03,7.85,1.25,9.09
	s-1.93,2.53-2.03,4.01c-0.1,1.48-2.5,1.36-4.06,1.82c-1.56,0.46-2.78,2.87-4.16,3.3c-1.39,0.43-0.27,2.6-0.37,4.08
	c-0.1,1.48-0.26,3.7-1.64,4.13c-1.39,0.43-0.01,2.01,1.09,2c1.09-0.01,2.83,1.51,4.36,3.98c0.69,1.11,0.83,1.9,0.71,2.54
	c1.36,0.27,2.52,0.58,2.74,0.91c0.56,0.86,2.19,2.35,3.54,2.24c1.35-0.1,1.99,3.48,1.22,6.08c-0.77,2.6-0.51,4.06,1.37,3.86
	c1.88-0.2,3.02,3.15,2.68,4.31c-0.34,1.16-1.61,4.8-0.67,6.27c0.94,1.47,1.56,9.57,1.39,11.65c-0.18,2.08,1.24,2.38-0.44,4.46
	c-1.41,1.74,0.21,2.18-0.79,4.01c0.51-0.1,1.13-0.31,1.8-0.43c1.29-0.23,2.74,1.57,3.8,1.79c1.07,0.22,3.66-2.5,4.65-2.67
	c0.99-0.18,3.38-0.6,3.7-1.68s2.13,1.57,2.21,2.26c0.19,1.49,2.11,3.32,1.58,4.07c-0.53,0.76-0.48,2.07-0.26,3.36
	c0.23,1.28,1.6,0.47,2.11-0.37c0.51-0.85,7.02,1.12,9.12,1.22c2.1,0.1,0.46,1.53,0.54,3.03c0.08,1.5,0.66,3.19,0.37,4.19
	c-0.29,1,1.19,3.48,2.31,3.95c1.12,0.46,1.16-0.96,3.47-1.28c2.31-0.31,3.66,0.87,3.92,2.33c0.26,1.47,1.72,1.69,2.82,1.49
	c1-0.18,1.84,0.9,3.16,1.04C245.81,313.1,246.4,312.58,246.91,312.42z M207.33,202.39c-0.83-0.4-0.4-5.89,0.59-6.51
	C208.98,195.2,209.09,203.25,207.33,202.39z M221.17,277.6c-0.66-3.71-0.26-12.26-4.43-14.94c-4.17-2.68-5.6,0.04-6.13-1.37
	c-0.56-1.52,5.01-3.35,7.2-1.83c2.19,1.53,4.04,7.35,3.77,11.23c-0.27,3.88,2.63,10.2,2.53,11.18
	C224.01,282.84,221.82,281.31,221.17,277.6z"/>
<text transform="matrix(0.1748 0.9846 -0.9846 0.1748 236.9385 126.0201)" style="fill:#213771; font-family:'Arial-BoldMT'; font-size:17.3043px;">10000</text>
<text transform="matrix(-0.9846 0.1748 -0.1748 -0.9846 278.4042 299.405)" style="fill:#20376E; font-family:'Arial-BoldMT'; font-size:6.0664px;">10000</text>
<rect x="240.66" y="101.9" transform="matrix(0.964 0.2658 -0.2658 0.964 67.0794 -69.5676)" style="fill:#97A7CD;" width="99.75" height="222.25"/>
<rect x="268.94" y="105.73" transform="matrix(0.964 0.2658 -0.2658 0.964 40.8373 -80.7736)" style="fill:#607EB3;" width="99.75" height="9.5"/>
<rect x="229.56" y="245.06" transform="matrix(0.964 0.2658 -0.2658 0.964 77.3857 -65.1665)" style="fill:#323D50;" width="99.75" height="16.47"/>
<rect x="234.31" y="226.46" transform="matrix(0.964 0.2658 -0.2658 0.964 72.9795 -67.0481)" style="fill:#8DBCD2;" width="99.75" height="19.25"/>
<rect x="217.05" y="286.14" transform="matrix(0.964 0.2658 -0.2658 0.964 86.3423 -50.583)" style="fill:#3488CA;" width="25.98" height="15.08"/>
<rect x="307.88" y="308.42" transform="matrix(0.964 0.2658 -0.2658 0.964 95.1712 -71.2584)" style="fill:#3488CA;" width="5.9" height="15.08"/>
<ellipse transform="matrix(0.2658 -0.964 0.964 0.2658 -111.1716 444.9762)" style="fill:#DAD724;" cx="236.56" cy="295.48" rx="3.61" ry="3.61"/>
<path style="fill:#C6BAC4;" d="M272.71,310.15c0.95,0.12,0.77-0.77,0.56-1.52c-0.21-0.76,0.1-2.9,0.32-3.68
	c0.21-0.78,1.65-1.92,2.43-1.71c0.78,0.21,1.7,0.3,1.91-0.48c0.21-0.78,0.93-1.84,2.99-2.11c2.06-0.27,2.39-1.44,3.12-2.18
	s0.04-3.55-0.06-4.73c-0.09-1.18,1.19-2.81,1.86-4.1c0.67-1.28,3.32-1.39,3.37-2.74c0.06-1.35-2.39-2.34-2.13-3.31
	c0.27-0.97,5.81-1.33,9.15-2.4s9.89-2.82,11.77-5.45c1.88-2.63,3.1-1.35,3.66-0.35c0.56,0.99,1.46-1.48,1.1-2.84
	c-0.36-1.36-1.22-3.17-1.14-4.61c0.08-1.44-1.52-3.98-0.63-5.31c0.89-1.33-1.26-2.65,0.13-3.53s1.42,2.07,2.39,2.34
	c0.97,0.27,0.22-1.93,0.94-2.26c0.72-0.33,1.73-1.72,0.86-1.96s-0.04-1.37,0.64-1.19s2.19-0.34,1.53-1.36
	c-0.66-1.02-0.42-3.78,0.42-4.18c0.84-0.4,0.87,0.66,1.72,1s2.31-0.41,3.33,0.08c1.02,0.49,2.65-1.26,2.53-2.34
	c-0.12-1.08,0.64-2.34,1.43-3.27c0.78-0.94,1.16-5.34,0.24-5.8c-0.92-0.46-0.25-5.94-0.37-7.02c-0.12-1.08,0.37-5.14,0.55-6.55
	c0.18-1.42-0.61-3.1-0.13-4.85c0.48-1.75,1.2-5.12,0.46-7c-0.74-1.88,0.93-4.14,0.87-5.42s1.05-3.06,0.83-3.75
	c-0.23-0.69-2.62-1.14-3.75-0.83s-2.38,3.32-3.02,3.36s0.27-3.28,0.51-4.89c0.23-1.61-1.82-1.76-2.9-1.64
	c-1.08,0.12-1.52-2.09-1.59-3.37s-2.34-0.64-2.66,0.52c-0.32,1.17-1.56,1.87-1.83,2.85c-0.27,0.97-2.27,0.63-3.44,0.31
	c-1.17-0.32-1.24-1.6-0.81-3.16c0.43-1.56,1.81-2.01,2.28-2.93c0.46-0.92-1.54-1.26-1.71-2.15c-0.17-0.89,1.63-0.6,1.95-1.77
	c0.32-1.17,0.89-2.48,2.17-2.55c1.28-0.07,2.22-2.74,1.38-4.23c-0.85-1.49-0.15-1.72,0.89-2.48c1.05-0.76,0.68-4-0.18-4.66
	s-0.67-2.91,0.74-4.2c1.4-1.29,2.06-2.16,0.7-2.53c-1.36-0.38,0.13-1.22,0.91-1.01c0.78,0.21,3.03-1.89,4.14-2.84
	c1.1-0.95,2.12-4.65,2.95-4.63s2.06-2.16,0.86-3.12s0.04-1.67,0.64-2.34c0.6-0.67,0.11-2.69-0.06-3.58s-1.23-3.9-0.85-5.26
	c0.38-1.36-1.59-1.07-1.5-2.93c0.09-1.86-1.18-1.79-2.01-1.81c-0.83-0.02-2.46,0.58-2.62-1.14c-0.15-1.72,2.54-1.61,3.89-2.7
	s0.5-2.59-0.86-2.96c-1.36-0.38-0.93-1.93-2.08-3.09c-1.15-1.15-1.93,0.93-2.52,0.77s-0.85-1.49-0.93-1.93
	c-0.09-0.44-1.77-1.95-2.46-1.73c-0.69,0.23-1.14,2.62-2.45,2.05s-2.62-1.14-2.55,0.13s-0.45,2.39-0.66,3.17
	c-0.21,0.78-1.93,0.93-3.87,1.87c-1.93,0.93-2.87,1.3-2.89-0.17c-0.01-1.47-0.95-1.1-2.22,0.44c-0.33,0.41-0.78,0.8-1.24,1.18
	c0.11,0.33,0.23,0.66,0.37,0.95c1.34,2.75,2.05,7.27,0.45,10.04c-1.6,2.77-0.99,5.6-3.16,6.39c-2.17,0.8-5.19-1.43-6.63-1.27
	c-1.44,0.16-0.79-2.73,0.01-4.61c0.8-1.88,0.87-6.19-0.44-5.99s-4.43,0.87-2.29-1.33c2.14-2.21-0.42-4.03-0.82-2.6
	c-0.39,1.43-2.62,2.91-3.79,2.59c-1.17-0.32-3.8-0.91-3.77,0.5c0.03,1.41-2.3,0.76-2.68,2.61c-0.37,1.85-1.48,3.36-2.78,1.47
	c-1.29-1.9-6.61-0.85-5.72-0.04c0.56,0.51,2.06,0.61,2.82,1.37c2.67-0.36,1.49,3.95,1.14,5.19c-0.38,1.39-3.13,3.24-5.64,4.23
	c-2.51,0.99-1.55,2.93-1.55,2.93l19.27,5.87l-0.1,11.92c0.24,0.18,0.46,0.37,0.63,0.57c1.68,2-0.56,3.45-1.24,3.99
	c-0.56,0.45,2.14,0.87,1.58,2.39c-0.56,1.52-2.56-0.84-2.88,0.32c-0.25,0.91-4.05,2.1-6.4,0.75c-1.9,1.34-6.11,3.54-7.03,3.59
	c-1.14,0.06-0.64,5.04-1.23,5.82c-0.59,0.77-2.45,7.53-2.79,8.75c-0.33,1.21-2.83,1.46-3.56,2.75c-0.73,1.29-2.84,0.15-4.45-0.11
	c-1.61-0.26-3.74,1.39-5.18,1.19c-1.44-0.21-1.36,2.23-2.09,3.53c-0.73,1.29-1.82,3.23-3.26,3.02c-1.44-0.21-0.87,1.81,0.12,2.27
	c0.99,0.46,1.9,2.58,2.22,5.46c0.15,1.3-0.07,2.07-0.45,2.6c1.11,0.82,2.03,1.61,2.08,2c0.14,1.02,0.97,3.06,2.23,3.55
	c1.26,0.49,0.3,3.99-1.52,6.01c-1.81,2.01-2.21,3.44-0.43,4.07c1.78,0.63,1.37,4.15,0.57,5.04c-0.81,0.9-3.52,3.64-3.3,5.38
	c0.22,1.74-2.71,9.31-3.76,11.12c-1.06,1.8,0.1,2.68-2.31,3.83c-2.03,0.97-0.75,2.06-2.44,3.28c0.5,0.13,1.15,0.2,1.81,0.39
	c1.27,0.35,1.8,2.59,2.67,3.25c0.87,0.66,4.38-0.68,5.35-0.41c0.97,0.27,3.31,0.91,4.07,0.07c0.76-0.84,1.24,2.33,1.02,2.99
	c-0.47,1.43,0.47,3.9-0.33,4.36c-0.8,0.46-1.33,1.66-1.68,2.92c-0.35,1.26,1.24,1.11,2.07,0.57c0.83-0.54,5.85,4.03,7.7,5.02
	c1.85,0.99-0.24,1.58-0.82,2.97c-0.58,1.39-0.78,3.17-1.47,3.94c-0.7,0.78-0.42,3.65,0.39,4.56c0.82,0.9,1.46-0.37,3.68,0.34
	c2.22,0.71,2.93,2.36,2.53,3.79c-0.4,1.44,0.83,2.26,1.9,2.56c0.98,0.27,1.27,1.6,2.41,2.3
	C271.43,310.3,272.19,310.08,272.71,310.15z M284.33,193.8c-0.57-0.72,2.17-5.48,3.34-5.62
	C288.91,188.02,285.54,195.34,284.33,193.8z M264.46,267.65c1-3.64,5.04-11.18,2.43-15.4c-2.61-4.21-5.07-2.38-4.94-3.88
	c0.15-1.61,5.97-0.87,7.28,1.45c1.31,2.32,0.48,8.37-1.43,11.76c-1.91,3.39-2.01,10.34-2.53,11.18
	C264.77,273.6,263.46,271.28,264.46,267.65z"/>
<text transform="matrix(-0.964 -0.2658 0.2658 -0.964 306.7842 311.9558)" style="fill:#20376E; font-family:'Arial-BoldMT'; font-size:6.0664px;">10000</text>
<g>
	<rect x="218.59" y="104.9" style="opacity:0.4;fill:#636363;" width="99.75" height="222.25"/>
	<rect x="216.59" y="102.9" style="fill:#97A7CD;" width="99.75" height="222.25"/>
	<rect x="216.59" y="102.9" style="fill:#607EB3;" width="99.75" height="9.5"/>
	<rect x="216.59" y="247.57" style="fill:#323D50;" width="99.75" height="16.47"/>
	<rect x="216.59" y="228.32" style="fill:#8DBCD2;" width="99.75" height="19.25"/>
	<rect x="216.59" y="300.32" style="fill:#3488CA;" width="25.98" height="15.08"/>
	<rect x="310.44" y="300.32" style="fill:#3488CA;" width="5.9" height="15.08"/>
	<circle style="fill:#DAD724;" cx="236.34" cy="307.86" r="3.61"/>
	<path style="fill:#C6BAC4;" d="M275.1,312.4c0.94-0.14,0.54-0.94,0.14-1.62c-0.4-0.68-0.67-2.83-0.67-3.64
		c0-0.81,1.08-2.29,1.88-2.29s1.72-0.17,1.72-0.98s0.4-2.02,2.32-2.83c1.92-0.81,1.92-2.02,2.42-2.93c0.51-0.91-0.91-3.43-1.31-4.55
		c-0.4-1.11,0.4-3.03,0.71-4.44c0.3-1.41,2.83-2.22,2.53-3.54s-2.93-1.62-2.93-2.63s5.25-2.83,8.18-4.75
		c2.93-1.92,8.79-5.35,9.9-8.38c1.11-3.03,2.63-2.12,3.43-1.31s1.01-1.82,0.3-3.03s-2.02-2.73-2.32-4.14
		c-0.3-1.41-2.53-3.43-2.02-4.95s-1.92-2.22-0.81-3.43c1.11-1.21,1.92,1.62,2.93,1.62c1.01,0-0.3-1.92,0.3-2.42
		c0.61-0.51,1.21-2.12,0.3-2.12c-0.91,0-0.4-1.31,0.3-1.31s2.02-0.91,1.11-1.72c-0.91-0.81-1.41-3.54-0.71-4.14
		c0.71-0.61,1.01,0.4,1.92,0.51c0.91,0.1,2.12-1.01,3.23-0.81c1.11,0.2,2.22-1.92,1.82-2.93c-0.4-1.01,0-2.42,0.51-3.54
		c0.51-1.11-0.3-5.45-1.31-5.66c-1.01-0.2-1.82-5.66-2.22-6.67c-0.4-1.01-1.01-5.05-1.21-6.46c-0.2-1.41-1.41-2.83-1.41-4.65
		s-0.2-5.25-1.41-6.87c-1.21-1.62-0.2-4.24-0.61-5.45c-0.4-1.21,0.2-3.23-0.2-3.84c-0.4-0.61-2.83-0.4-3.84,0.2
		s-1.41,3.84-2.02,4.04c-0.61,0.2-0.61-3.23-0.81-4.85c-0.2-1.62-2.22-1.21-3.23-0.81c-1.01,0.4-2.02-1.62-2.42-2.83
		c-0.4-1.21-2.42,0-2.42,1.21s-1.01,2.22-1.01,3.23s-2.02,1.21-3.23,1.21s-1.62-1.21-1.62-2.83c0-1.62,1.21-2.42,1.41-3.43
		s-1.82-0.81-2.22-1.62c-0.4-0.81,1.41-1.01,1.41-2.22c0-1.21,0.2-2.63,1.41-3.03c1.21-0.4,1.41-3.23,0.2-4.44
		c-1.21-1.21-0.61-1.62,0.2-2.63s-0.4-4.04-1.41-4.44c-1.01-0.4-1.41-2.63-0.4-4.24s1.41-2.63,0-2.63s-0.2-1.21,0.61-1.21
		s2.42-2.63,3.23-3.84s0.81-5.05,1.62-5.25c0.81-0.2,1.41-2.63,0-3.23c-1.41-0.61-0.4-1.62,0-2.42s-0.61-2.63-1.01-3.43
		c-0.4-0.81-2.22-3.43-2.22-4.85s-1.82-0.61-2.22-2.42s-1.62-1.41-2.42-1.21c-0.81,0.2-2.22,1.21-2.83-0.4
		c-0.61-1.62,2.02-2.22,3.03-3.64c1.01-1.41-0.2-2.63-1.62-2.63c-1.41,0-1.41-1.62-2.83-2.42c-1.41-0.81-1.62,1.41-2.22,1.41
		s-1.21-1.21-1.41-1.62c-0.2-0.4-2.22-1.41-2.83-1.01c-0.61,0.4-0.4,2.83-1.82,2.63c-1.41-0.2-2.83-0.4-2.42,0.81
		c0.4,1.21,0.2,2.42,0.2,3.23c0,0.81-1.62,1.41-3.23,2.83c-1.62,1.41-2.42,2.02-2.83,0.61c-0.4-1.41-1.21-0.81-2.02,1.01
		c-0.21,0.48-0.54,0.98-0.88,1.47c0.2,0.29,0.39,0.57,0.61,0.82c2.02,2.29,3.91,6.46,3.1,9.56c-0.81,3.1,0.54,5.66-1.35,7
		c-1.88,1.35-5.39,0-6.73,0.54c-1.35,0.54-1.48-2.42-1.21-4.44c0.27-2.02-0.81-6.2-2.02-5.66c-1.21,0.54-4.04,2.02-2.56-0.67
		c1.48-2.7-1.48-3.77-1.48-2.29c0,1.48-1.75,3.5-2.96,3.5c-1.21,0-3.9,0.13-3.5,1.48s-2.02,1.34-1.89,3.23
		c0.14,1.88-0.54,3.64-2.29,2.16c-1.75-1.48-6.6,0.94-5.52,1.48c0.68,0.34,2.15,0.04,3.08,0.57c2.47-1.05,2.48,3.41,2.48,4.7
		c0,1.44-2.16,3.95-4.32,5.57c-2.16,1.62-0.72,3.24-0.72,3.24l20.14,0.54l3.07,11.52c0.28,0.11,0.55,0.24,0.76,0.39
		c2.16,1.48,0.37,3.48-0.14,4.18c-0.42,0.59,2.29,0.27,2.16,1.88c-0.14,1.62-2.69-0.13-2.69,1.08c0,0.94-3.35,3.1-5.97,2.42
		c-1.48,1.79-4.95,5.04-5.82,5.33c-1.08,0.36,0.72,5.03,0.36,5.93c-0.36,0.9-0.36,7.91-0.36,9.17s-2.34,2.16-2.7,3.6
		c-0.36,1.44-2.7,0.9-4.31,1.08c-1.62,0.18-3.24,2.34-4.67,2.52c-1.44,0.18-0.72,2.52-1.08,3.95c-0.36,1.44-0.9,3.6-2.34,3.78
		c-1.44,0.18-0.36,1.98,0.72,2.16c1.08,0.18,2.52,1.98,3.6,4.68c0.49,1.21,0.49,2.02,0.25,2.63c1.29,0.5,2.38,1.01,2.54,1.37
		c0.4,0.94,1.75,2.69,3.1,2.83c1.35,0.14,1.35,3.77,0.14,6.2c-1.21,2.42-1.21,3.9,0.67,4.04c1.89,0.14,2.42,3.63,1.89,4.71
		c-0.54,1.08-2.42,4.44-1.75,6.06c0.67,1.62-0.14,9.7-0.67,11.72c-0.54,2.02,0.81,2.56-1.21,4.31c-1.7,1.47-0.17,2.18-1.48,3.81
		c0.51-0.01,1.16-0.11,1.85-0.11c1.31,0,2.42,2.02,3.43,2.42c1.01,0.4,4.04-1.82,5.05-1.82s3.43,0,3.94-1.01s1.82,1.92,1.78,2.61
		c-0.07,1.5,1.49,3.64,0.84,4.29c-0.65,0.65-0.84,1.96-0.84,3.26c0,1.3,1.49,0.74,2.14,0c0.65-0.74,6.71,2.33,8.76,2.8
		c2.05,0.46,0.19,1.58,0,3.08c-0.19,1.49,0.09,3.26-0.37,4.19c-0.46,0.93,0.56,3.64,1.58,4.29c1.03,0.65,1.31-0.74,3.64-0.65
		c2.33,0.09,3.45,1.49,3.45,2.98c0,1.49,1.4,1.96,2.52,1.96c1.01,0,1.65,1.21,2.93,1.58C273.9,312.88,274.58,312.47,275.1,312.4z
		 M255.36,197.14c-0.74-0.54,0.64-5.86,1.72-6.31C258.25,190.36,256.94,198.3,255.36,197.14z M255.84,273.61
		c0-3.77,1.88-12.12-1.75-15.49c-3.64-3.37-5.52-0.94-5.79-2.42c-0.29-1.59,5.52-2.42,7.41-0.54c1.88,1.89,2.69,7.94,1.75,11.72
		c-0.94,3.77,0.81,10.5,0.54,11.45C257.73,279.27,255.84,277.38,255.84,273.61z"/>
</g>
<rect x="216.59" y="247.57" style="fill:#323D50;" width="99.75" height="16.47"/>
<rect x="216.59" y="228.32" style="fill:#8DBCD2;" width="99.75" height="19.25"/>
<rect x="216.59" y="300.32" style="fill:#3488CA;" width="25.98" height="15.08"/>
<rect x="310.44" y="300.32" style="fill:#3488CA;" width="5.9" height="15.08"/>
<circle style="fill:#DAD724;" cx="236.34" cy="307.86" r="3.61"/>
<path style="fill:#C6BAC4;" d="M275.1,312.4c0.94-0.14,0.54-0.94,0.14-1.62c-0.4-0.68-0.67-2.83-0.67-3.64
	c0-0.81,1.08-2.29,1.88-2.29s1.72-0.17,1.72-0.98s0.4-2.02,2.32-2.83c1.92-0.81,1.92-2.02,2.42-2.93c0.51-0.91-0.91-3.43-1.31-4.55
	c-0.4-1.11,0.4-3.03,0.71-4.44c0.3-1.41,2.83-2.22,2.53-3.54s-2.93-1.62-2.93-2.63s5.25-2.83,8.18-4.75
	c2.93-1.92,8.79-5.35,9.9-8.38c1.11-3.03,2.63-2.12,3.43-1.31s1.01-1.82,0.3-3.03s-2.02-2.73-2.32-4.14
	c-0.3-1.41-2.53-3.43-2.02-4.95s-1.92-2.22-0.81-3.43c1.11-1.21,1.92,1.62,2.93,1.62c1.01,0-0.3-1.92,0.3-2.42
	c0.61-0.51,1.21-2.12,0.3-2.12c-0.91,0-0.4-1.31,0.3-1.31s2.02-0.91,1.11-1.72c-0.91-0.81-1.41-3.54-0.71-4.14
	c0.71-0.61,1.01,0.4,1.92,0.51c0.91,0.1,2.12-1.01,3.23-0.81c1.11,0.2,2.22-1.92,1.82-2.93c-0.4-1.01,0-2.42,0.51-3.54
	c0.51-1.11-0.3-5.45-1.31-5.66c-1.01-0.2-1.82-5.66-2.22-6.67c-0.4-1.01-1.01-5.05-1.21-6.46c-0.2-1.41-1.41-2.83-1.41-4.65
	s-0.2-5.25-1.41-6.87c-1.21-1.62-0.2-4.24-0.61-5.45c-0.4-1.21,0.2-3.23-0.2-3.84c-0.4-0.61-2.83-0.4-3.84,0.2s-1.41,3.84-2.02,4.04
	c-0.61,0.2-0.61-3.23-0.81-4.85c-0.2-1.62-2.22-1.21-3.23-0.81c-1.01,0.4-2.02-1.62-2.42-2.83c-0.4-1.21-2.42,0-2.42,1.21
	s-1.01,2.22-1.01,3.23s-2.02,1.21-3.23,1.21s-1.62-1.21-1.62-2.83c0-1.62,1.21-2.42,1.41-3.43s-1.82-0.81-2.22-1.62
	c-0.4-0.81,1.41-1.01,1.41-2.22c0-1.21,0.2-2.63,1.41-3.03c1.21-0.4,1.41-3.23,0.2-4.44c-1.21-1.21-0.61-1.62,0.2-2.63
	s-0.4-4.04-1.41-4.44c-1.01-0.4-1.41-2.63-0.4-4.24s1.41-2.63,0-2.63s-0.2-1.21,0.61-1.21s2.42-2.63,3.23-3.84s0.81-5.05,1.62-5.25
	c0.81-0.2,1.41-2.63,0-3.23c-1.41-0.61-0.4-1.62,0-2.42s-0.61-2.63-1.01-3.43c-0.4-0.81-2.22-3.43-2.22-4.85s-1.82-0.61-2.22-2.42
	s-1.62-1.41-2.42-1.21c-0.81,0.2-2.22,1.21-2.83-0.4c-0.61-1.62,2.02-2.22,3.03-3.64c1.01-1.41-0.2-2.63-1.62-2.63
	c-1.41,0-1.41-1.62-2.83-2.42c-1.41-0.81-1.62,1.41-2.22,1.41s-1.21-1.21-1.41-1.62c-0.2-0.4-2.22-1.41-2.83-1.01
	c-0.61,0.4-0.4,2.83-1.82,2.63c-1.41-0.2-2.83-0.4-2.42,0.81c0.4,1.21,0.2,2.42,0.2,3.23c0,0.81-1.62,1.41-3.23,2.83
	c-1.62,1.41-2.42,2.02-2.83,0.61c-0.4-1.41-1.21-0.81-2.02,1.01c-0.21,0.48-0.54,0.98-0.88,1.47c0.2,0.29,0.39,0.57,0.61,0.82
	c2.02,2.29,3.91,6.46,3.1,9.56c-0.81,3.1,0.54,5.66-1.35,7c-1.88,1.35-5.39,0-6.73,0.54c-1.35,0.54-1.48-2.42-1.21-4.44
	c0.27-2.02-0.81-6.2-2.02-5.66c-1.21,0.54-4.04,2.02-2.56-0.67c1.48-2.7-1.48-3.77-1.48-2.29c0,1.48-1.75,3.5-2.96,3.5
	c-1.21,0-3.9,0.13-3.5,1.48s-2.02,1.34-1.89,3.23c0.14,1.88-0.54,3.64-2.29,2.16c-1.75-1.48-6.6,0.94-5.52,1.48
	c0.68,0.34,2.15,0.04,3.08,0.57c2.47-1.05,2.48,3.41,2.48,4.7c0,1.44-2.16,3.95-4.32,5.57c-2.16,1.62-0.72,3.24-0.72,3.24
	l20.14,0.54l3.07,11.52c0.28,0.11,0.55,0.24,0.76,0.39c2.16,1.48,0.37,3.48-0.14,4.18c-0.42,0.59,2.29,0.27,2.16,1.88
	c-0.14,1.62-2.69-0.13-2.69,1.08c0,0.94-3.35,3.1-5.97,2.42c-1.48,1.79-4.95,5.04-5.82,5.33c-1.08,0.36,0.72,5.03,0.36,5.93
	c-0.36,0.9-0.36,7.91-0.36,9.17s-2.34,2.16-2.7,3.6c-0.36,1.44-2.7,0.9-4.31,1.08c-1.62,0.18-3.24,2.34-4.67,2.52
	c-1.44,0.18-0.72,2.52-1.08,3.95c-0.36,1.44-0.9,3.6-2.34,3.78c-1.44,0.18-0.36,1.98,0.72,2.16c1.08,0.18,2.52,1.98,3.6,4.68
	c0.49,1.21,0.49,2.02,0.25,2.63c1.29,0.5,2.38,1.01,2.54,1.37c0.4,0.94,1.75,2.69,3.1,2.83c1.35,0.14,1.35,3.77,0.14,6.2
	c-1.21,2.42-1.21,3.9,0.67,4.04c1.89,0.14,2.42,3.63,1.89,4.71c-0.54,1.08-2.42,4.44-1.75,6.06c0.67,1.62-0.14,9.7-0.67,11.72
	c-0.54,2.02,0.81,2.56-1.21,4.31c-1.7,1.47-0.17,2.18-1.48,3.81c0.51-0.01,1.16-0.11,1.85-0.11c1.31,0,2.42,2.02,3.43,2.42
	c1.01,0.4,4.04-1.82,5.05-1.82s3.43,0,3.94-1.01s1.82,1.92,1.78,2.61c-0.07,1.5,1.49,3.64,0.84,4.29c-0.65,0.65-0.84,1.96-0.84,3.26
	c0,1.3,1.49,0.74,2.14,0c0.65-0.74,6.71,2.33,8.76,2.8c2.05,0.46,0.19,1.58,0,3.08c-0.19,1.49,0.09,3.26-0.37,4.19
	c-0.46,0.93,0.56,3.64,1.58,4.29c1.03,0.65,1.31-0.74,3.64-0.65c2.33,0.09,3.45,1.49,3.45,2.98c0,1.49,1.4,1.96,2.52,1.96
	c1.01,0,1.65,1.21,2.93,1.58C273.9,312.88,274.58,312.47,275.1,312.4z M255.36,197.14c-0.74-0.54,0.64-5.86,1.72-6.31
	C258.25,190.36,256.94,198.3,255.36,197.14z M255.84,273.61c0-3.77,1.88-12.12-1.75-15.49c-3.64-3.37-5.52-0.94-5.79-2.42
	c-0.29-1.59,5.52-2.42,7.41-0.54c1.88,1.89,2.69,7.94,1.75,11.72c-0.94,3.77,0.81,10.5,0.54,11.45
	C257.73,279.27,255.84,277.38,255.84,273.61z"/>
<polygon style="fill:#C28965;" points="251.09,319.15 318.09,335.4 299.34,388.15 "/>
<path style="fill:#F7C597;" d="M242.09,468.79V415.9c0,0-12-15-11-41.5c1.25-18.75,10.75-36.21,11-39.73s0-68.27,0-68.27
	s-1.25-21,16-21c0,0,17.12-0.75,17.12,17.12c0,0-9.12,73.62,12.88,73.62s22.09-2.67,22.09-2.67l2.16-7.96l4,0.12v-15.8l4.75-17.2
	l8.75-33c0,0,11,12.75,12.75,20.75s8.25,58.62,8.25,58.62s2.25,6.88-1.75,13.38c-2.28,3.7-11.94,21.2-19.84,35.58
	c-7.18,13.07-12.54,21.87-12.91,36.77c-0.92,36.59-1.18,24.26-1,37.75c0,0-22.84,5.25-36.88,6.29
	C261.28,470.07,242.09,468.79,242.09,468.79z"/>
<path style="fill:#FCE0D4;" d="M248.09,254.4c0,0-4.36,23.48,10.33,23.5c16,0.02,11.33-23.5,11.33-23.5S260.09,246.57,248.09,254.4z
	"/>
</svg>
