<?xml version="1.0" encoding="utf-8"?>
<!-- Generator: Adobe Illustrator 19.2.1, SVG Export Plug-In . SVG Version: 6.00 Build 0)  -->
<svg version="1.1" id="Layer_3" xmlns="http://www.w3.org/2000/svg"  x="0px" y="0px"
	 viewBox="0 0 512 512" style="enable-background:new 0 0 512 512;" xml:space="preserve">
<circle style="fill:#C0EBDF;" cx="262.5" cy="271.65" r="211.85"/>
<path style="fill:#1BBF46;" d="M421.85,388.5L421.85,388.5c2.7-2.58,4.4-6.22,4.4-10.25c0-2.02-0.43-3.93-1.19-5.66
	c6.39-1.36,11.19-7.04,11.19-13.84c0-6.69-4.65-12.28-10.89-13.76c0.94-2.53,1.21-5.39,0.45-8.4c-1.38-5.42-5.92-9.62-11.45-10.48
	c-3.7-0.58-7.17,0.3-9.96,2.12c-1.69-5.39-6.72-9.29-12.67-9.29c-5.09,0-9.51,2.87-11.74,7.08c-2.14-1.47-4.72-2.33-7.51-2.33
	c-6.64,0-12.13,4.88-13.11,11.25c-1.37-0.48-2.83-0.75-4.37-0.75c-6.31,0-11.57,4.4-12.93,10.29L151.5,376l-3.37-71.91
	c0.01-0.31,0.05-0.61,0.05-0.92c0-11.14-9.03-20.17-20.17-20.17c-7.67,0-14.34,4.28-17.75,10.58c-3.34-2.46-7.45-3.92-11.92-3.92
	c-9.85,0-18.04,7.07-19.81,16.41c-2.43-0.95-5.07-1.46-7.85-1.39c-0.12,0-0.24-0.02-0.37-0.02c-10.52,0-19.05,8.53-19.05,19.05
	c0,3.35,0.87,6.5,2.4,9.24c-6.77,3.56-11.4,10.65-11.4,18.83c0,9.87,6.74,18.15,15.85,20.54c1.03,10.78,10.11,19.22,21.16,19.22
	c2.57,0,5.03-0.48,7.31-1.32c38.22,56.3,102.75,93.29,175.93,93.29c73.91,0,139-37.74,177.07-95H421.85z"/>
<path style="fill:#FFFFFF;" d="M165.87,177.91c-2.66,0-5.13,0.78-7.22,2.11c-1.63-8.5-9.09-14.93-18.07-14.93
	c-8.58,0-15.78,5.88-17.81,13.83c-2.47-1.92-5.56-3.08-8.93-3.08c-8.03,0-14.54,6.51-14.54,14.54s6.51,14.54,14.54,14.54h52.04
	c7.46,0,13.5-6.05,13.5-13.5S173.33,177.91,165.87,177.91z"/>
<path style="fill:#FFFFFF;" d="M411.67,234.24c-0.26,0-0.51,0.02-0.76,0.04c-3.23-6.24-10.16-10.05-17.5-8.98
	c-6.18,0.9-11.09,5.01-13.28,10.4c-1.76-0.93-3.76-1.46-5.89-1.46c-6.98,0-12.64,5.66-12.64,12.64c0,6.98,5.66,12.64,12.64,12.64
	h37.44c6.98,0,12.64-5.66,12.64-12.64C424.31,239.89,418.65,234.24,411.67,234.24z"/>
<rect x="146.06" y="52.5" style="fill:#F8AB1A;" width="209" height="338"/>
<polyline style="fill:#D79529;" points="146,50.5 355,388.5 355,315 355,50.5 146,50.5 "/>
<path style="fill:#159F3E;" d="M439.57,388.5l-353,1.71c0,0,49.38,93.7,173.14,93.29C387,483.08,439.57,388.5,439.57,388.5z"/>
<rect x="189.33" y="87" style="fill:#FFFFFF;" width="25.67" height="36"/>
<rect x="240.67" y="87" style="fill:#FFFFFF;" width="25.67" height="36"/>
<rect x="292" y="87" style="fill:#FFFFFF;" width="25.67" height="36"/>
<rect x="189.33" y="167" style="fill:#FFFFFF;" width="25.67" height="36"/>
<rect x="240.67" y="167" style="fill:#FFFFFF;" width="25.67" height="36"/>
<rect x="292" y="167" style="fill:#FFFFFF;" width="25.67" height="36"/>
<rect x="189.33" y="247" style="fill:#FFFFFF;" width="25.67" height="36"/>
<rect x="240.67" y="247" style="fill:#FFFFFF;" width="25.67" height="36"/>
<rect x="240.67" y="327" style="fill:#FFFFFF;" width="25.67" height="36"/>
<rect x="292" y="247" style="fill:#FFFFFF;" width="25.67" height="36"/>
<rect x="292" y="327" style="fill:#FFFFFF;" width="25.67" height="36"/>
<rect x="168.5" y="328.5" style="fill:#F87800;" width="39.67" height="61.5"/>
<polyline style="opacity:0.67;fill:#C95600;" points="168.33,328.5 208.33,389.95 208.33,376.59 208.33,328.5 168.33,328.5 "/>
<path style="fill:#FEFF93;" d="M222.17,430.17c-38.47-15.58-14-40.17-14-40.17l-39.38-0.31c0,0-10.02,3.82-11.62,18.64
	c-2.67,24.68,34.67,22.5,18.52,59.43c20.99,8.53,51.98,16.57,86.81,15.74C262.53,483.4,261.12,445.95,222.17,430.17z"/>
<rect x="202.17" y="31.33" style="fill:#F8AA1D;" width="102.67" height="19.17"/>
</svg>
