<?xml version="1.0" encoding="utf-8"?>
<!-- Generator: Adobe Illustrator 19.2.1, SVG Export Plug-In . SVG Version: 6.00 Build 0)  -->
<svg version="1.1" id="_x3F__x3F__x3F__x3F__1" xmlns="http://www.w3.org/2000/svg"
	 x="0px" y="0px" viewBox="0 0 595 842" style="enable-background:new 0 0 595 842;" xml:space="preserve">
<path style="fill-rule:evenodd;clip-rule:evenodd;fill:#009C42;" d="M423.11,257h86.91v-77.37l-11.68-9.54h-75.23V257L423.11,257z
	 M148.58,304.67c-8.17,0-13.93-7.68-13.93-17.86c0-8.84,4.32-18.06,14.22-18.06c9.99,0,13.93,9.9,13.93,17.78
	c0,10.57-6.04,18.15-14.12,18.15H148.58L148.58,304.67z M148.39,311.02c11.04,0,23.05-7.5,23.05-24.8
	c0-14.11-9.03-23.83-22.38-23.83c-12.76,0-23.04,9.14-23.04,24.68c0,14.7,9.79,23.94,22.28,23.94H148.39L148.39,311.02z
	 M98.93,309.95h8.45v-24.88c0-1.34,0.09-2.68,0.29-3.94c1.15-6.24,5.38-10.76,11.34-10.76c1.15,0,2.01,0.1,2.88,0.19v-7.97
	c-0.77-0.09-1.45-0.2-2.32-0.2c-5.66,0-10.84,3.95-12.96,10.19h-0.29l-0.39-9.13h-7.4c0.3,4.33,0.4,9.03,0.4,14.5V309.95
	L98.93,309.95z M52.72,282.95c0-1.04,0.29-2.31,0.49-3.36c1.63-6.42,7.1-10.47,12.87-10.47c8.94,0,13.73,7.98,13.73,17.3
	c0,10.66-5.18,17.95-14.12,17.95c-5.95,0-11.13-4.04-12.58-9.89c-0.28-1.05-0.38-2.31-0.38-3.46V282.95L52.72,282.95z M44.27,328.98
	h8.45V303.7h0.2c2.78,4.61,8.06,7.32,14.31,7.32c10.85,0,21.14-8.27,21.14-25c0-14.12-8.46-23.63-19.8-23.63
	c-7.48,0-13.06,3.27-16.42,9.04h-0.19l-0.49-7.97h-7.58c0.29,4.42,0.39,9.22,0.39,15.18V328.98z"/>
<path style="fill-rule:evenodd;clip-rule:evenodd;fill:#898889;" d="M408.69,257.23c4.8,0,7.78-3.28,7.78-7.31
	c-0.1-4.13-2.98-7.31-7.69-7.31c-4.7,0-7.77,3.18-7.77,7.31c0,4.03,2.97,7.31,7.59,7.31H408.69L408.69,257.23z M415.98,262.98h-14.6
	v46.96h14.6V262.98L415.98,262.98z M375.07,289.01c0,1.25-0.09,2.78-0.48,3.94c-0.96,3.36-3.94,5.87-7.77,5.87
	c-6.06,0-9.52-5.48-9.52-12.49c0-8.55,4.23-13.35,9.61-13.35c4.04,0,6.82,2.6,7.87,6.43c0.2,0.87,0.29,1.83,0.29,2.68V289.01
	L375.07,289.01z M389.67,277.01c0-7.01,0.19-10.95,0.39-14.03h-12.68l-0.49,5.67h-0.19c-2.41-3.94-6.44-6.72-12.87-6.72
	c-11.62,0-21.33,9.6-21.33,24.77c0,13.45,8.26,22.86,19.88,22.86c5.38,0,9.89-2.22,12.68-6.05h0.19v2.98
	c0,8.76-5.28,12.41-12.2,12.41c-5.57,0-10.66-1.83-13.63-3.56l-2.89,11.14c4.24,2.3,10.67,3.55,16.91,3.55
	c6.92,0,13.94-1.34,19.01-5.76c5.4-4.7,7.22-12.1,7.22-21.15V277.01L389.67,277.01z M288.9,309.95h14.61v-27.08
	c0-1.35,0.11-2.7,0.49-3.66c1.04-2.67,3.45-5.46,7.5-5.46c5.28,0,7.39,4.13,7.39,10.18v26.02h14.59V282.2
	c0-13.84-7.2-20.27-16.8-20.27c-7.87,0-12.58,4.51-14.51,7.58h-0.29l-0.68-6.53h-12.67c0.19,4.23,0.38,9.13,0.38,14.98V309.95
	L288.9,309.95z M249.34,281.13c0.39-3.85,2.88-9.5,9.12-9.5c6.63,0,8.16,5.95,8.16,9.5H249.34L249.34,281.13z M279.69,291.13
	c0.2-1.05,0.49-3.27,0.49-5.76c0-11.61-5.77-23.43-20.95-23.43c-16.22,0-23.72,13.16-23.72,25.07c0,14.69,9.13,23.93,25.07,23.93
	c6.33,0,12.19-0.98,17-2.99l-1.93-9.89c-3.93,1.34-7.97,2.01-12.96,2.01c-6.82,0-12.78-2.88-13.25-8.93H279.69L279.69,291.13z
	 M211.88,289.11c0,1.15-0.1,2.31-0.29,3.26c-0.86,4.14-4.33,7.02-8.55,7.02c-6.05,0-9.99-5-9.99-12.87c0-7.4,3.37-13.34,10.09-13.34
	c4.52,0,7.69,3.16,8.55,7.1c0.19,0.86,0.19,1.82,0.19,2.69V289.11L211.88,289.11z M211.88,241.66v25.56h-0.19
	c-2.12-3.18-6.53-5.29-12.4-5.29c-11.23,0-21.12,9.22-21.03,24.97c0,14.6,8.94,24.13,20.08,24.13c6.04,0,11.82-2.71,14.69-7.9h0.29
	l0.58,6.82h12.96c-0.19-3.17-0.39-8.74-0.39-14.02v-54.27H211.88z"/>
<path style="fill-rule:evenodd;clip-rule:evenodd;fill:#FFFFFF;" d="M434.39,204.19h-5.38v43.39h5.38v-11.12l2.75-3.05l10.14,14.18
	h6.55l-13.03-17.42l11.43-12.16h-6.41l-8.75,10.2c-0.86,1.04-1.82,2.33-2.57,3.36h-0.12V204.19z"/>
<path style="fill-rule:evenodd;clip-rule:evenodd;fill:#FFFFFF;" d="M454.31,247.58h24.02v-4.29h-17.29v-0.11
	c1.34-1.47,2.57-3,3.79-4.59l13.26-17.24v-3.35h-22.56v4.26h16.08v0.13c-1.41,1.59-2.57,2.99-3.92,4.64l-13.39,17.43V247.58z"/>
<polygon style="fill-rule:evenodd;clip-rule:evenodd;fill:#2B2522;" points="189.39,214.14 189.39,233.64 186.18,233.64 
	186.18,216.67 175.78,216.67 175.78,233.64 172.53,233.64 172.53,214.14 "/>
<path style="fill-rule:evenodd;clip-rule:evenodd;fill:#2B2522;" d="M190.67,233.64V231c2.11-0.32,3.5-1.21,4.14-2.68
	c0.79-2.07,1.18-5.75,1.18-11v-3.18h13.22v19.51H206v-16.97h-6.79v1.97c0,5-0.5,8.65-1.54,10.9
	C196.56,231.96,194.24,233.32,190.67,233.64L190.67,233.64z"/>
<path style="fill-rule:evenodd;clip-rule:evenodd;fill:#2B2522;" d="M220.91,223.85c-2.57,0-4.39,0.29-5.39,0.86
	c-1,0.61-1.5,1.61-1.5,3.04c0,1.14,0.39,2.07,1.14,2.72c0.75,0.68,1.75,1,3.07,1c1.75,0,3.18-0.61,4.25-1.89
	c1.11-1.25,1.64-2.93,1.64-5v-0.71H220.91L220.91,223.85z M227.31,222.5v11.15h-3.18v-2.97c-0.75,1.21-1.64,2.07-2.75,2.64
	c-1.11,0.57-2.43,0.86-4,0.86c-2,0-3.61-0.57-4.79-1.68c-1.18-1.14-1.75-2.64-1.75-4.54c0-2.18,0.71-3.86,2.18-4.97
	c1.5-1.11,3.68-1.68,6.61-1.68h4.5V221c0-1.46-0.5-2.61-1.46-3.39c-0.96-0.82-2.32-1.21-4.11-1.21c-1.11,0-2.18,0.11-3.25,0.39
	c-1.07,0.25-2.07,0.68-3.04,1.21v-2.96c1.14-0.46,2.29-0.82,3.39-1.04c1.11-0.21,2.18-0.36,3.25-0.36c2.82,0,4.93,0.75,6.32,2.21
	C226.63,217.32,227.31,219.53,227.31,222.5L227.31,222.5z"/>
<polygon style="fill-rule:evenodd;clip-rule:evenodd;fill:#2B2522;" points="228.27,214.14 246.99,214.14 246.99,216.67 
	239.21,216.67 239.21,233.64 236.06,233.64 236.06,216.67 228.27,216.67 "/>
<polygon style="fill-rule:evenodd;clip-rule:evenodd;fill:#2B2522;" points="265.29,214.14 265.29,233.64 262.07,233.64 
	262.07,217.99 252.68,233.64 248.53,233.64 248.53,214.14 251.75,214.14 251.75,229.78 261.14,214.14 "/>
<polygon style="fill-rule:evenodd;clip-rule:evenodd;fill:#2B2522;" points="274.65,214.14 279.36,214.14 284.9,227.21 
	290.47,214.14 295.12,214.14 295.12,233.64 291.9,233.64 291.9,217.21 286.51,229.93 283.29,229.93 277.9,217.21 277.9,233.64 
	274.65,233.64 "/>
<path style="fill-rule:evenodd;clip-rule:evenodd;fill:#2B2522;" d="M314.72,223.1v1.57h-14.79c0.14,2.18,0.82,3.89,2,5.04
	c1.22,1.14,2.86,1.71,5,1.71c1.21,0,2.43-0.14,3.57-0.43c1.14-0.32,2.32-0.75,3.47-1.36v3.04c-1.18,0.46-2.36,0.86-3.57,1.11
	c-1.18,0.25-2.43,0.39-3.68,0.39c-3.11,0-5.57-0.93-7.4-2.75c-1.82-1.79-2.71-4.25-2.71-7.36c0-3.18,0.86-5.72,2.57-7.61
	c1.75-1.86,4.07-2.82,7-2.82c2.61,0,4.68,0.86,6.22,2.54C313.93,217.89,314.72,220.17,314.72,223.1L314.72,223.1L314.72,223.1z
	 M311.5,222.14c-0.04-1.75-0.54-3.14-1.5-4.18c-0.93-1.07-2.22-1.57-3.79-1.57c-1.79,0-3.25,0.5-4.32,1.5
	c-1.07,1-1.68,2.43-1.86,4.29L311.5,222.14z"/>
<polygon style="fill-rule:evenodd;clip-rule:evenodd;fill:#2B2522;" points="316.64,214.14 319.89,214.14 319.89,222.1 
	330.28,222.1 330.28,214.14 333.5,214.14 333.5,233.64 330.28,233.64 330.28,224.68 319.89,224.68 319.89,233.64 316.64,233.64 "/>
<path style="fill-rule:evenodd;clip-rule:evenodd;fill:#2B2522;" d="M349.88,227.86c0-1.04-0.39-1.82-1.14-2.39
	c-0.75-0.54-1.86-0.79-3.32-0.79h-4.57v6.43h4.57c1.46,0,2.57-0.29,3.32-0.82C349.49,229.71,349.88,228.93,349.88,227.86
	L349.88,227.86L349.88,227.86z M337.59,214.14h3.25v7.97h4.68c2.5,0,4.43,0.46,5.75,1.43c1.36,0.93,2.04,2.39,2.04,4.32
	c0,1.96-0.68,3.43-2.04,4.36c-1.32,0.96-3.25,1.43-5.75,1.43h-7.93V214.14z"/>
<polygon style="fill-rule:evenodd;clip-rule:evenodd;fill:#2B2522;" points="369.83,231.11 378.08,231.11 378.08,214.14 
	381.33,214.14 381.33,233.64 355.11,233.64 355.11,214.14 358.36,214.14 358.36,231.11 366.61,231.11 366.61,214.14 369.83,214.14 
	"/>
<path style="fill-rule:evenodd;clip-rule:evenodd;fill:#2B2522;" d="M402.15,223.1v1.57h-14.79c0.14,2.18,0.82,3.89,2,5.04
	c1.21,1.14,2.86,1.71,5,1.71c1.21,0,2.43-0.14,3.57-0.43c1.14-0.32,2.32-0.75,3.46-1.36l0,3.04c-1.18,0.46-2.36,0.86-3.57,1.11
	c-1.18,0.25-2.43,0.39-3.68,0.39c-3.11,0-5.57-0.93-7.4-2.75c-1.82-1.79-2.71-4.25-2.71-7.36c0-3.18,0.86-5.72,2.57-7.61
	c1.75-1.86,4.07-2.82,7-2.82c2.61,0,4.68,0.86,6.22,2.54C401.37,217.89,402.15,220.17,402.15,223.1L402.15,223.1L402.15,223.1z
	 M398.94,222.14c-0.04-1.75-0.54-3.14-1.5-4.18c-0.93-1.07-2.21-1.57-3.79-1.57c-1.79,0-3.25,0.5-4.32,1.5
	c-1.07,1-1.68,2.43-1.86,4.29L398.94,222.14z"/>
<path style="fill-rule:evenodd;clip-rule:evenodd;fill:#2B2522;" d="M54.32,173.01c2.86,0,5.22,0.61,7,1.82
	c1.82,1.21,2.75,2.86,2.75,4.93c0,1.46-0.43,2.68-1.25,3.68c-0.82,0.96-2,1.68-3.54,2.04c1.71,0.39,3,1.14,3.97,2.25
	c0.93,1.14,1.43,2.57,1.43,4.25c0,2.64-1.04,4.68-3.11,6.04c-2.07,1.36-4.47,2.04-7.25,2.04c-1.43,0-2.97-0.21-4.61-0.57
	c-1.64-0.39-2.72-0.75-3.25-1.07v-3.64c1.79,1.04,3.18,1.68,4.14,1.93c1,0.25,2.22,0.39,3.64,0.39c2.18,0,3.89-0.43,5.11-1.29
	c1.21-0.82,1.82-2.11,1.82-3.82c0-1.54-0.57-2.75-1.64-3.61c-1.07-0.86-2.75-1.32-5-1.32h-3.57v-2.89h3.72
	c2.07,0,3.57-0.32,4.5-1.04c0.93-0.68,1.36-1.68,1.36-2.97c0-1.36-0.46-2.39-1.39-3.11c-0.96-0.72-2.57-1.07-4.89-1.07
	c-1.54,0-2.61,0.07-3.14,0.21c-0.54,0.14-2,0.68-4.36,1.57v-3.47c1.32-0.46,2.64-0.79,4.04-0.96
	C52.14,173.12,53.32,173.01,54.32,173.01L54.32,173.01z"/>
<polygon style="fill-rule:evenodd;clip-rule:evenodd;fill:#2B2522;" points="67.58,180.02 70.83,180.02 70.83,187.98 81.23,187.98 
	81.23,180.02 84.44,180.02 84.44,199.53 81.23,199.53 81.23,190.56 70.83,190.56 70.83,199.53 67.58,199.53 "/>
<path style="fill-rule:evenodd;clip-rule:evenodd;fill:#2B2522;" d="M97.6,189.74c-2.57,0-4.39,0.29-5.39,0.86
	c-1,0.61-1.5,1.61-1.5,3.04c0,1.14,0.39,2.07,1.14,2.71c0.75,0.68,1.75,1,3.07,1c1.75,0,3.18-0.61,4.25-1.89
	c1.11-1.25,1.64-2.93,1.64-5v-0.71H97.6L97.6,189.74z M104,188.38v11.15h-3.18v-2.97c-0.75,1.21-1.64,2.07-2.75,2.64
	c-1.11,0.57-2.43,0.86-4,0.86c-2,0-3.61-0.57-4.79-1.68c-1.18-1.14-1.75-2.64-1.75-4.54c0-2.18,0.71-3.86,2.18-4.97
	c1.5-1.11,3.68-1.68,6.61-1.68h4.5v-0.32c0-1.46-0.5-2.61-1.46-3.39c-0.96-0.82-2.32-1.22-4.11-1.22c-1.11,0-2.18,0.11-3.25,0.39
	c-1.07,0.25-2.07,0.68-3.04,1.21v-2.97c1.14-0.46,2.29-0.82,3.39-1.04c1.11-0.21,2.18-0.36,3.25-0.36c2.82,0,4.93,0.75,6.32,2.21
	C103.32,183.2,104,185.41,104,188.38L104,188.38z"/>
<path style="fill-rule:evenodd;clip-rule:evenodd;fill:#2B2522;" d="M124.57,180.02v19.51h-3.22v-15.65l-9.4,15.65h-4.14v-19.51
	h3.22v15.65l9.4-15.65H124.57L124.57,180.02z M110.74,172.37h2.04c0.14,0.89,0.5,1.54,1.04,1.97c0.57,0.43,1.36,0.68,2.39,0.68
	c0.97,0,1.75-0.21,2.32-0.64c0.57-0.47,0.89-1.11,1.07-2l2.04,0c-0.11,1.68-0.61,2.93-1.54,3.75c-0.93,0.86-2.21,1.25-3.89,1.25
	c-1.71,0-3-0.39-3.93-1.25C111.35,175.3,110.85,174.05,110.74,172.37L110.74,172.37z"/>
<path style="fill-rule:evenodd;clip-rule:evenodd;fill:#2B2522;" d="M144.71,179.52c2.79,0,4.97,0.93,6.57,2.75
	c1.57,1.79,2.39,4.32,2.39,7.54c0,3.18-0.82,5.68-2.39,7.5c-1.61,1.82-3.79,2.75-6.57,2.75c-2.82,0-5-0.89-6.54-2.68
	c-1.54-1.75-2.36-4.29-2.43-7.57l-0.11-4c-0.07-1.39-0.11-2.32-0.11-2.79c0-1.86,0.36-3.5,1.04-4.86c1.04-2.14,2.5-3.68,4.32-4.64
	c1.82-0.93,4.29-1.39,7.36-1.43c1.39,0,2.43-0.11,3.07-0.29l0.89,2.54c-0.57,0.21-1.14,0.36-1.64,0.36l-4.36,0.29
	c-1.46,0.11-2.64,0.43-3.54,0.93c-2.32,1.36-3.57,2.93-3.82,4.72l-0.11,1C140.24,180.23,142.24,179.52,144.71,179.52L144.71,179.52
	L144.71,179.52z M144.71,182.27c-1.75,0-3.11,0.64-4.11,2c-1,1.36-1.5,3.18-1.5,5.54c0,2.32,0.5,4.14,1.5,5.5c1,1.36,2.36,2,4.11,2
	c1.68,0,3.04-0.64,4.04-2c1-1.36,1.5-3.18,1.5-5.5c0-2.32-0.5-4.18-1.5-5.54C147.75,182.95,146.39,182.27,144.71,182.27
	L144.71,182.27z"/>
<path style="fill-rule:evenodd;clip-rule:evenodd;fill:#2B2522;" d="M164.43,182.27c-1.75,0-3.11,0.64-4.11,2
	c-1,1.36-1.5,3.18-1.5,5.54c0,2.32,0.5,4.14,1.5,5.5c1,1.36,2.36,2,4.11,2c1.72,0,3.04-0.64,4.04-2c1-1.36,1.5-3.18,1.5-5.5
	c0-2.32-0.5-4.18-1.5-5.54C167.47,182.95,166.15,182.27,164.43,182.27L164.43,182.27L164.43,182.27z M164.43,179.52
	c2.79,0,4.97,0.93,6.57,2.75c1.57,1.79,2.39,4.32,2.39,7.54c0,3.18-0.82,5.68-2.39,7.5c-1.61,1.82-3.79,2.75-6.57,2.75
	c-2.82,0-5-0.93-6.61-2.75c-1.57-1.82-2.36-4.32-2.36-7.5c0-3.22,0.79-5.75,2.36-7.54C159.43,180.45,161.61,179.52,164.43,179.52
	L164.43,179.52z"/>
<path style="fill-rule:evenodd;clip-rule:evenodd;fill:#2B2522;" d="M173.71,199.53v-2.64c2.11-0.32,3.5-1.22,4.14-2.68
	c0.79-2.07,1.18-5.75,1.18-11v-3.18h13.22v19.51h-3.21v-16.97h-6.79v1.96c0,5-0.5,8.65-1.54,10.9
	C179.6,197.85,177.28,199.2,173.71,199.53L173.71,199.53z"/>
<path style="fill-rule:evenodd;clip-rule:evenodd;fill:#2B2522;" d="M207.08,193.74c0-1.04-0.39-1.82-1.14-2.39
	c-0.75-0.54-1.86-0.79-3.32-0.79h-4.57v6.43h4.57c1.46,0,2.57-0.29,3.32-0.82C206.68,195.59,207.08,194.81,207.08,193.74
	L207.08,193.74L207.08,193.74z M194.79,180.02h3.25v7.97h4.68c2.5,0,4.43,0.46,5.75,1.43c1.36,0.93,2.04,2.39,2.04,4.32
	c0,1.96-0.68,3.43-2.04,4.36c-1.32,0.96-3.25,1.43-5.75,1.43h-7.93V180.02z"/>
<polygon style="fill-rule:evenodd;clip-rule:evenodd;fill:#2B2522;" points="227.2,196.99 235.46,196.99 235.46,180.02 
	238.71,180.02 238.71,199.53 212.48,199.53 212.48,180.02 215.74,180.02 215.74,196.99 223.99,196.99 223.99,180.02 227.2,180.02 
	"/>
<path style="fill-rule:evenodd;clip-rule:evenodd;fill:#2B2522;" d="M258.81,188.98v1.57h-14.79c0.14,2.18,0.82,3.89,2,5.04
	c1.22,1.14,2.86,1.71,5,1.71c1.21,0,2.43-0.14,3.57-0.43c1.14-0.32,2.32-0.75,3.47-1.36v3.04c-1.18,0.46-2.36,0.86-3.57,1.11
	c-1.18,0.25-2.43,0.39-3.68,0.39c-3.11,0-5.57-0.93-7.4-2.75c-1.82-1.79-2.72-4.25-2.72-7.36c0-3.18,0.86-5.72,2.57-7.61
	c1.75-1.86,4.07-2.82,7-2.82c2.61,0,4.68,0.86,6.22,2.54C258.03,183.77,258.81,186.06,258.81,188.98L258.81,188.98L258.81,188.98z
	 M255.6,188.02c-0.04-1.75-0.54-3.14-1.5-4.18c-0.93-1.07-2.21-1.57-3.79-1.57c-1.79,0-3.25,0.5-4.32,1.5
	c-1.07,1-1.68,2.43-1.86,4.29L255.6,188.02z"/>
<rect x="273.41" y="188.48" style="fill-rule:evenodd;clip-rule:evenodd;fill:#2B2522;" width="32.26" height="2.54"/>
<path style="fill:#DF3114;" d="M567.08,165.98c-12.94-18.75-22.29-65.05-55.18-60.91c-32.67,4.12-61.55,29.94-76.37,49.62
	l14.63,8.49l4.23-7.29l62.99,36.56l-4.23,7.29l13.26,7.69c11.37-27.54,4.6-42.04,4.39-42.38c-0.25-0.4,0.23-0.66,0.53-0.41
	c4.56,3.7,2.55,21.48,7.01,23.28s11.9-5.07,13.4-8.01c0.48-0.93,2.26,0.08,0.91,1.25c-6.55,5.68-14.64,24.06,6.03,38.79
	C559.78,204.89,580.02,184.73,567.08,165.98z"/>
<path style="fill:#F4F4F4;" d="M529.94,200.06c-0.71-6.03-6.6-25.76-35.28-42.41c-28.68-16.65-48.73-11.98-54.32-9.6
	c-5.59,2.37-12.38,7.62-11.07,15.4c1.3,7.78,10.73,8.84,16.96,7.44s25.53,0.97,36.49,7.33c10.96,6.36,22.59,21.95,24.47,28.05
	c1.88,6.11,7.46,13.77,14.87,11.04C529.46,214.58,530.65,206.09,529.94,200.06z"/>
<ellipse transform="matrix(0.502 -0.8648 0.8648 0.502 89.244 584.8023)" style="fill:#F4F4F4;" cx="552.46" cy="214.9" rx="15.36" ry="15.36"/>
</svg>
